<?xml version="1.0" encoding="UTF-8" standalone="no"?>
<!-- Created with Inkscape (http://www.inkscape.org/) -->

<svg
   width="291.42041mm"
   height="291.42041mm"
   viewBox="0 0 291.42041 291.42041"
   version="1.1"
   id="svg5"
   xml:space="preserve"
   inkscape:version="1.2.2 (b0a8486541, 2022-12-01)"
   sodipodi:docname="argon.svg"
   xmlns:inkscape="http://www.inkscape.org/namespaces/inkscape"
   xmlns:sodipodi="http://sodipodi.sourceforge.net/DTD/sodipodi-0.dtd"
   xmlns="http://www.w3.org/2000/svg"
   xmlns:svg="http://www.w3.org/2000/svg"><sodipodi:namedview
     id="namedview7"
     pagecolor="#ffffff"
     bordercolor="#666666"
     borderopacity="1.0"
     inkscape:showpageshadow="2"
     inkscape:pageopacity="0.0"
     inkscape:pagecheckerboard="0"
     inkscape:deskcolor="#d1d1d1"
     inkscape:document-units="mm"
     showgrid="false"
     inkscape:zoom="0.23471559"
     inkscape:cx="939.43485"
     inkscape:cy="453.74064"
     inkscape:window-width="1920"
     inkscape:window-height="1016"
     inkscape:window-x="0"
     inkscape:window-y="27"
     inkscape:window-maximized="1"
     inkscape:current-layer="layer1" /><defs
     id="defs2"><filter
       inkscape:collect="always"
       style="color-interpolation-filters:sRGB"
       id="filter1790"
       x="-0.3996833"
       y="-0.3853042"
       width="1.7993666"
       height="1.7706084"><feGaussianBlur
         inkscape:collect="always"
         stdDeviation="14.403289"
         id="feGaussianBlur1792" /></filter><filter
       inkscape:collect="always"
       style="color-interpolation-filters:sRGB"
       id="filter8341"
       x="-0.43836031"
       y="-0.43836031"
       width="1.8767206"
       height="1.8767206"><feGaussianBlur
         inkscape:collect="always"
         stdDeviation="28.362226"
         id="feGaussianBlur8343" /></filter></defs><g
     inkscape:label="Layer 1"
     inkscape:groupmode="layer"
     id="layer1"
     transform="translate(40.710205,-2.7897952)"><circle
       style="opacity:0.646018;fill:#ceaaf9;fill-opacity:1;stroke:none;stroke-width:1.79906;stroke-linecap:round;stroke-linejoin:round;stroke-dasharray:none;stroke-opacity:1;filter:url(#filter8341)"
       id="path5754"
       cx="105"
       cy="148.5"
       r="77.640862" /><circle
       style="fill:#8646d4;fill-opacity:1;stroke-width:1.765;stroke-linecap:round;stroke-linejoin:round"
       id="path234"
       cx="105"
       cy="148.5"
       r="62.98505" /><path
       id="path570"
       style="color:#000000;opacity:0.960816;mix-blend-mode:normal;fill:#f5c6fe;fill-opacity:1;stroke:none;stroke-linecap:round;stroke-linejoin:round;-inkscape-stroke:none;filter:url(#filter1790)"
       d="m 130.67969,103.64258 c -2.66058,0.0406 -4.68219,2.67474 -4.58721,5.22806 -1.70791,13.03335 -3.41582,26.06671 -5.12373,39.10006 -2.01462,-6.36414 -3.95998,-12.75432 -6.07655,-19.08329 -1.4066,-2.8865 -6.11209,-3.27542 -7.82775,-0.49093 -1.20164,1.97967 -1.55701,4.31337 -2.41077,6.44144 -1.8813,5.64517 -3.76261,11.29035 -5.643914,16.93552 -2.842767,-8.56572 -5.578475,-17.17197 -8.548135,-25.69222 -1.440347,-2.89048 -6.177426,-3.18221 -7.850303,-0.36638 -1.212714,1.93877 -0.957737,4.29503 -1.428519,6.42403 -1.204166,8.55788 -2.408331,17.11575 -3.612497,25.67363 -2.394276,-14.62067 -4.716781,-29.25671 -7.22238,-43.8568 -0.951085,-3.11042 -5.602919,-4.16212 -7.726838,-1.65101 -1.525902,1.54038 -1.43036,3.92591 -0.913143,5.87317 3.923084,23.99865 7.791708,48.00855 11.785302,71.99419 0.863623,3.15652 5.537136,4.32607 7.71592,1.83659 1.67889,-1.80585 1.425834,-4.41988 1.8753,-6.67154 1.714681,-12.20156 3.429362,-24.40312 5.144043,-36.60468 2.23497,6.72769 4.36821,13.49558 6.757121,20.16773 1.501594,2.88292 6.310523,3.03507 7.871103,0.13111 1.18113,-2.26595 1.67442,-4.80164 2.58979,-7.1742 1.73918,-5.22123 3.47836,-10.44247 5.21753,-15.6637 2.68686,8.50594 5.29258,17.04203 8.09892,25.50667 1.43136,2.88243 6.14426,3.22 7.84249,0.42302 1.26972,-1.96791 0.96748,-4.41266 1.43997,-6.61295 1.10334,-8.41938 2.20668,-16.83877 3.31003,-25.25815 2.48329,15.18521 4.90954,30.38209 7.47169,45.55294 0.8849,3.14351 5.52973,4.29008 7.71372,1.81723 1.58028,-1.5289 1.50345,-3.96212 0.96607,-5.93085 -4.05484,-24.89045 -8.08185,-49.78571 -12.18664,-74.66783 -0.54484,-2.00498 -2.56468,-3.47763 -4.64062,-3.38086 z"
       transform="matrix(0.68659502,0,0,0.68659502,32.785441,46.539386)" /><path
       style="fill:none;stroke:#f6d7ff;stroke-width:5.49276;stroke-linecap:round;stroke-linejoin:round;stroke-dasharray:none;stroke-opacity:1"
       d="m 78.2065,125.91084 8.196968,50.29272 5.832442,-41.48714 8.63592,26.2432 8.11202,-24.34741 8.26454,26.35056 5.50705,-42.01228 8.49923,52.2335"
       id="path570-3" /></g></svg>
