<?xml version="1.0" encoding="UTF-8" standalone="no"?>
<!-- Created with Inkscape (http://www.inkscape.org/) -->

<svg
   width="1958.3668mm"
   height="364.68466mm"
   viewBox="0 0 1958.3669 364.68466"
   version="1.1"
   id="svg5"
   inkscape:version="1.2.2 (b0a8486541, 2022-12-01)"
   sodipodi:docname="argonmir.svg"
   xml:space="preserve"
   xmlns:inkscape="http://www.inkscape.org/namespaces/inkscape"
   xmlns:sodipodi="http://sodipodi.sourceforge.net/DTD/sodipodi-0.dtd"
   xmlns="http://www.w3.org/2000/svg"
   xmlns:svg="http://www.w3.org/2000/svg"><sodipodi:namedview
     id="namedview7"
     pagecolor="#ffffff"
     bordercolor="#666666"
     borderopacity="1.0"
     inkscape:showpageshadow="2"
     inkscape:pageopacity="0.0"
     inkscape:pagecheckerboard="0"
     inkscape:deskcolor="#d1d1d1"
     inkscape:document-units="mm"
     showgrid="false"
     inkscape:zoom="0.047495609"
     inkscape:cx="4958.3531"
     inkscape:cy="-410.56427"
     inkscape:window-width="1920"
     inkscape:window-height="1016"
     inkscape:window-x="0"
     inkscape:window-y="27"
     inkscape:window-maximized="1"
     inkscape:current-layer="layer1" /><defs
     id="defs2" /><g
     inkscape:label="Layer 1"
     inkscape:groupmode="layer"
     id="layer1"
     transform="translate(398.89999,-674.00935)"><g
       inkscape:label="Layer 1"
       id="layer1-3"
       transform="matrix(0.81014677,0,0,0.81014677,-1799.472,2029.096)"><path
         style="fill:none;stroke:#ffffff;stroke-width:50;stroke-linecap:round;stroke-linejoin:round;stroke-dasharray:none;stroke-opacity:1"
         d="m 2454.9353,-1327.5752 -0.2056,-241.9503 48.3931,-48.2497 h 193.5727 l 48.3343,48.3587 v 48.3514 l -47.9245,48.4377 h -241.9241 l 290.0541,145.1608"
         id="path4017-5-1" /><path
         style="fill:none;stroke:#ffffff;stroke-width:50;stroke-linecap:round;stroke-linejoin:round;stroke-dasharray:none;stroke-opacity:1"
         d="m 2833.3578,-1302.5226 -0.2056,-241.9503 48.3931,-48.2497 h 193.5727 l 48.3343,48.3587 v 48.3514 l -47.9245,48.4377 h -241.9241 l 290.0541,145.1608"
         id="path4017-5-1-1" /><path
         style="fill:none;stroke:#ffffff;stroke-width:50;stroke-linecap:round;stroke-linejoin:round;stroke-dasharray:none;stroke-opacity:1"
         d="m 3481.985,-1327.4493 -0.2056,-241.9503 48.3931,-48.2497 h 193.5727 l 48.3343,48.3587 v 48.3514 l -47.9245,48.4377 h -241.9241 l 290.0541,145.1608"
         id="path4017-5-1-2" /><g
         id="g1266"
         transform="translate(-1480.9485,1167.2835)"
         style="stroke:#8f4fd7;stroke-opacity:1"><g
           id="g3691"
           transform="rotate(90,3453.4139,21.14294)"><path
             style="fill:none;stroke:#8f4fd7;stroke-width:50;stroke-linecap:round;stroke-linejoin:round;stroke-dasharray:none;stroke-opacity:1"
             d="m 1017.2093,-10.12529 -50.00126,-50.012203 -199.90927,-0.0413 -49.92799,49.959603 0.0367,200.01034 50.05547,49.9728 199.85251,0.0564 49.98204,-49.9991"
             id="path692" /><path
             style="fill:none;stroke:#8f4fd7;stroke-width:50;stroke-linecap:round;stroke-linejoin:round;stroke-dasharray:none;stroke-opacity:1"
             d="m 717.39137,89.804314 249.87411,0.0676"
             id="path694" /></g></g><path
         style="fill:none;stroke:#8f4fd7;stroke-width:50;stroke-linecap:round;stroke-linejoin:round;stroke-dasharray:none;stroke-opacity:1"
         d="m 2077.5799,-1647.6434 149.873,0.032 0.1262,299.9439 -149.9478,-0.039 299.8932,0.054 -149.9481,-0.039 -0.1235,-299.9195 149.907,0.016"
         id="path702" /><path
         style="fill:none;stroke:#8f4fd7;stroke-width:50;stroke-linecap:round;stroke-linejoin:round;stroke-dasharray:none;stroke-opacity:1"
         d="m 3148.7196,-1547.5546 49.9999,-49.955 199.817,-0.01 50.0012,50.0122 0.088,199.9466 -49.9822,49.9991 -199.9083,-0.029 -49.9454,-50.0395 -0.071,-199.925"
         id="path704" /><path
         style="fill:none;stroke:#8f4fd7;stroke-width:50;stroke-linecap:round;stroke-linejoin:round;stroke-dasharray:none;stroke-opacity:1"
         d="m 4120.998,-1497.4159 -50.0012,-50.0122 -199.911,-0.053 -49.9263,49.9718 -0.016,50.0375 50,50.0001 199.9069,0.017 50.0024,50.0244 0.034,49.9615 -49.9263,49.9718 -199.9083,-0.029 -50.0012,-50.0122"
         id="path708" /></g></g></svg>
