<svg xmlns="http://www.w3.org/2000/svg">
<defs>
<font
       horiz-adv-x="1000"
       id="font791"
       inkscape:label="font 1">
      <font-face
         units-per-em="1000"
         ascent="750"
         cap-height="600"
         x-height="400"
         descent="200"
         id="font-face793"
         font-family="SVGFont 1" />
      <missing-glyph
         d="m 499.96289,706.61914 a 25.0025,25.0025 0 0 1 -25.01953,-25.01562 l 0.0723,-107.08008 a 25.0025,25.0025 0 0 1 24.97461,-24.98242 l 107.0918,-0.10938 a 25.0025,25.0025 0 0 1 25.02539,25.01758 l -0.0762,107.10547 a 25.0025,25.0025 0 0 1 -24.98047,24.98242 z m 24.99805,-50.01953 57.08789,-0.043 0.041,-57.09961 -57.09179,0.0586 z M 499.98242,492.29688 A 25.0025,25.0025 0 0 1 474.98047,467.2793 l 0.0762,-107.10547 a 25.0025,25.0025 0 0 1 24.99805,-24.98242 l 46.80273,-0.002 -64.40625,-64.42773 a 25,25 0 0 1 0.006,-35.35547 25,25 0 0 1 35.35547,0.006 l 107.12305,107.16016 a 25.0025,25.0025 0 0 1 7.32031,17.7207 l -0.19531,107.04687 a 25.0025,25.0025 0 0 1 -24.99805,24.95313 z m 25.01563,-50 57.10742,-0.002 0.10351,-57.10547 -57.16992,0.002 z"
         id="missing-glyph795" />
      <glyph
         glyph-name=""
         unicode="A"
         id="glyph7065"
         d="m 285.62109,920.99609 a 25.0025,25.0025 0 0 1 -17.69336,-7.33007 L 160.92383,806.56445 a 25.0025,25.0025 0 0 1 -7.31446,-17.67773 l 0.1543,-535.77539 a 25,25 0 0 1 25.00781,-24.99219 25,25 0 0 1 24.99219,25.00586 l -0.0703,242.83594 592.63672,-0.13672 0.17578,-242.83399 v -0.006 a 25.0025,25.0025 0 0 1 50,0.0312 v 0.004 0.01 l -0.27149,535.67578 a 25.0025,25.0025 0 0 1 -7.32031,17.66406 L 731.75,913.55664 a 25.0025,25.0025 0 0 1 -17.67188,7.32422 z m 10.35157,-50.0039 407.73828,-0.10742 92.52929,-92.55079 0.11719,-232.50976 -592.67773,0.13672 -0.0664,232.58789 z" />
      <glyph
         glyph-name=""
         unicode="B"
         id="glyph1770"
         d="m 285.62305,920.96875 a 25.0025,25.0025 0 0 1 -17.68946,-7.32617 L 160.92578,806.56641 a 25.0025,25.0025 0 0 1 -7.31641,-17.67774 l 0.0801,-428.66797 a 25.0025,25.0025 0 0 1 7.32227,-17.67382 L 268.17189,235.38477 a 25.0025,25.0025 0 0 1 17.67774,-7.32227 l 428.57031,-0.004 a 25.0025,25.0025 0 0 1 17.68555,7.33008 l 107.0039,107.10156 a 25.0025,25.0025 0 0 1 7.31446,17.68946 l -0.0801,107.15625 a 25.0025,25.0025 0 0 1 -7.32422,17.66211 l -89.44531,89.42383 89.30859,89.41406 a 25.0025,25.0025 0 0 1 7.3125,17.6582 l 0.0391,107.18945 a 25.0025,25.0025 0 0 1 -7.32226,17.6875 l -107.1602,107.1622 a 25.0025,25.0025 0 0 1 -17.67187,7.32227 z m 10.35156,-50.00195 407.74023,-0.10938 92.51563,-92.51562 -0.0312,-86.48828 -92.29102,-92.39844 -500.26367,0.0879 -0.0332,179.00195 z m -92.32031,-321.42774 500.25,-0.16015 92.44726,-92.42578 0.0645,-86.45313 -92.35743,-92.44141 -407.85351,0.004 -92.51758,92.51953 z" />
      <glyph
         glyph-name=""
         unicode="C"
         id="glyph1772"
         d="m 285.62109,920.99609 a 25.0025,25.0025 0 0 1 -17.69336,-7.33007 L 160.92383,806.56445 a 25.0025,25.0025 0 0 1 -7.31446,-17.68164 l 0.19532,-428.58593 a 25.0025,25.0025 0 0 1 7.32031,-17.66407 l 107.16406,-107.1875 a 25.0025,25.0025 0 0 1 17.67578,-7.32422 l 428.45118,-0.0625 a 25.0025,25.0025 0 0 1 17.68945,7.33008 l 107.0039,107.10156 a 25,25 0 0 1 -0.0156,35.35547 25,25 0 0 1 -35.35547,-0.0156 l -99.67773,-99.76953 -407.73243,0.0586 -92.52734,92.54883 -0.18555,407.88281 92.35743,92.44141 407.73828,-0.10742 99.84375,-99.86719 a 25,25 0 0 1 35.35547,-0.004 25,25 0 0 1 0.004,35.35547 L 731.75,913.55664 a 25.0025,25.0025 0 0 1 -17.67188,7.32422 z" />
      <glyph
         glyph-name=""
         unicode="D"
         id="glyph1774"
         d="m 285.63086,920.99609 a 25.0025,25.0025 0 0 1 -17.70313,-7.33007 L 160.92383,806.56445 a 25.0025,25.0025 0 0 1 -7.31446,-17.68164 l 0.19532,-428.58593 a 25.0025,25.0025 0 0 1 7.30664,-17.64844 L 268.15625,235.40039 a 25.0025,25.0025 0 0 1 17.69727,-7.33789 l 214.28125,0.0234 a 25.0025,25.0025 0 0 1 17.67773,7.32617 l 321.14453,321.25785 a 25.0025,25.0025 0 0 1 -0.002,35.35156 L 517.4668,913.5332 a 25.0025,25.0025 0 0 1 -17.66211,7.32422 z m 10.33789,-50.00781 193.45703,-0.125 296.49805,-296.52148 -296.15039,-296.25586 -193.55664,-0.0215 -92.41602,92.58985 -0.1875,407.89648 z" />
      <glyph
         glyph-name=""
         unicode="E"
         id="glyph1776"
         d="m 285.62109,920.99609 a 25.0025,25.0025 0 0 1 -17.6914,-7.32812 L 160.81055,806.48242 a 25.0025,25.0025 0 0 1 -7.31641,-17.68359 l 0.19531,-428.58594 a 25.0025,25.0025 0 0 1 7.33594,-17.68164 L 268.30664,235.42773 a 25.0025,25.0025 0 0 1 17.65625,-7.30664 L 714.29297,228 a 25.0025,25.0025 0 0 1 17.68945,7.32617 l 107.12305,107.15821 a 25,25 0 0 1 -0.006,35.35546 25,25 0 0 1 -35.35547,-0.006 l -99.79883,-99.83203 -407.6289,0.11524 -92.63282,92.47851 -0.082,178.94336 457.04102,-0.13476 a 25,25 0 0 1 25.00781,24.99218 25,25 0 0 1 -24.99219,25.00782 l -457.07812,0.13476 -0.082,178.92383 92.47265,92.5293 407.74024,-0.10742 99.84375,-99.86719 a 25,25 0 0 1 35.35547,-0.004 25,25 0 0 1 0.004,35.35547 L 731.75,913.55664 a 25.0025,25.0025 0 0 1 -17.67188,7.32422 z" />
      <glyph
         glyph-name=""
         unicode="F"
         id="glyph1778"
         d="m 285.62109,920.99609 a 25.0025,25.0025 0 0 1 -17.6914,-7.32812 L 160.81055,806.48242 a 25.0025,25.0025 0 0 1 -7.31641,-17.68554 l 0.26953,-535.6875 v -0.004 a 25.0025,25.0025 0 0 1 50,0.0215 v 0.004 0.008 l -0.10156,296.375 456.98242,-0.10937 a 25,25 0 0 1 25.00586,24.99218 25,25 0 0 1 -24.99414,25.00782 l -457.06836,0.10937 -0.0898,178.95117 92.47265,92.52735 407.74414,-0.13281 99.8418,-99.84375 a 25,25 0 0 1 35.35547,0 25,25 0 0 1 0,35.35546 l -107.1602,107.1619 a 25.0025,25.0025 0 0 1 -17.66992,7.32227 z" />
      <glyph
         glyph-name=""
         unicode="G"
         id="glyph1780"
         d="m 285.62109,920.99609 a 25.0025,25.0025 0 0 1 -17.68945,-7.32812 L 160.81055,806.48242 a 25.0025,25.0025 0 0 1 -7.31641,-17.6914 l 0.31055,-428.5 a 25.0025,25.0025 0 0 1 7.30664,-17.64258 L 268.15625,235.40039 A 25.0025,25.0025 0 0 1 285.8457,228.0625 L 714.29687,228 a 25.0025,25.0025 0 0 1 17.68555,7.32617 l 107.12305,107.15821 a 25.0025,25.0025 0 0 1 7.31836,17.69335 l -0.0723,107.07813 a 25.0025,25.0025 0 0 1 -17.08395,23.69727 L 507.93555,598.20117 a 25,25 0 0 1 -31.62891,-15.79883 25,25 0 0 1 15.80078,-31.6289 l 304.25586,-101.54883 0.0547,-78.71875 -92.47266,-92.50391 -407.72461,0.0586 -92.42383,92.59765 -0.29492,407.8086 92.46875,92.52539 407.74414,-0.13477 92.51563,-92.51562 -0.0352,-96.83008 a 25,25 0 0 1 24.99024,-25.00977 25,25 0 0 1 25.00976,24.99219 l 0.0391,107.18945 a 25.0025,25.0025 0 0 1 -7.32226,17.6875 L 731.75195,913.5332 a 25.0025,25.0025 0 0 1 -17.66992,7.32227 z" />
      <glyph
         glyph-name=""
         unicode="H"
         id="glyph1782"
         d="M 283.43555,920.875 A 25,25 0 0 1 267.9375,913.64453 L 160.8125,806.48438 a 25.0025,25.0025 0 0 1 -7.31836,-17.69336 l 0.31055,-428.5 a 25.0025,25.0025 0 0 1 7.32031,-17.65821 l 107.16406,-107.1875 a 25,25 0 0 1 35.35547,-0.004 25,25 0 0 1 0.004,35.35547 l -99.85156,99.87304 -0.12891,178.8457 592.67383,-0.11523 0.0781,-178.89648 -99.68554,-99.77539 a 25,25 0 0 1 0.0156,-35.35547 25,25 0 0 1 35.35547,0.0156 l 107.00391,107.10156 a 25.0025,25.0025 0 0 1 7.31445,17.68165 l -0.18945,428.53124 a 25.0025,25.0025 0 0 1 -7.32227,17.66797 L 731.75195,913.5332 a 25,25 0 0 1 -24.14843,6.47071 25,25 0 0 1 -11.20704,-6.47071 25,25 0 0 1 0,-35.35547 l 99.84375,-99.84375 0.0781,-178.93359 -592.6875,0.11523 -0.12891,178.94922 99.79688,99.83008 a 25,25 0 0 1 -0.006,35.35547 25,25 0 0 1 -11.20899,6.46875 25,25 0 0 1 -8.64843,0.75586 z" />
      <glyph
         glyph-name=""
         unicode="I"
         id="glyph1784"
         d="m 392.70703,920.96484 a 25.0025,25.0025 0 0 1 -17.70117,-7.33398 L 268.00781,806.47656 a 25,25 0 0 1 0.0254,-35.35547 25,25 0 0 1 35.35547,0.0254 l 99.66992,99.81446 71.74805,-0.0274 0.3125,-592.85547 -71.70898,0.0117 -99.84375,99.86524 a 25,25 0 0 1 -24.14649,6.47265 25,25 0 0 1 -11.20898,-6.46875 25,25 0 0 1 -0.004,-35.35546 L 375.37305,235.41406 a 25.0025,25.0025 0 0 1 17.67578,-7.32422 l 214.16211,-0.0332 a 25.0025,25.0025 0 0 1 17.68945,7.33008 L 731.9043,342.48828 a 25,25 0 0 1 -0.0156,35.35547 25,25 0 0 1 -35.35547,-0.0156 l -99.67968,-99.76953 -71.73438,0.0117 -0.3125,592.84571 71.82227,-0.0273 99.8457,-99.86719 a 25,25 0 0 1 35.35547,-0.004 25,25 0 0 1 0.004,35.35547 L 624.66992,913.56055 A 25.0025,25.0025 0 0 1 607,920.88477 Z" />
      <glyph
         glyph-name=""
         unicode="J"
         id="glyph1786"
         d="m 392.71289,920.86133 a 25.0025,25.0025 0 0 1 -17.67578,-7.31641 L 267.90234,806.49023 a 25,25 0 0 1 -0.0137,-35.35546 25,25 0 0 1 35.35547,-0.0137 l 99.8125,99.73829 125.28711,-0.0195 0.24805,-500.30859 -92.35742,-92.4668 -86.36133,0.0254 -99.84571,99.86719 a 25,25 0 0 1 -35.35546,0.004 25,25 0 0 1 -0.004,-35.35547 L 321.83203,235.41602 a 25.0025,25.0025 0 0 1 17.67383,-7.32422 l 107.08203,-0.0293 a 25.0025,25.0025 0 0 1 17.69531,7.33203 l 107.00196,107.12891 a 25.0025,25.0025 0 0 1 7.31054,17.67968 l -0.25195,510.62891 18.17187,-0.004 99.8379,-99.8164 a 25,25 0 0 1 35.35546,0.004 25,25 0 0 1 -0.004,35.35547 l -107.1582,107.13477 a 25.0025,25.0025 0 0 1 -17.67188,7.32031 z" />
      <glyph
         glyph-name=""
         unicode="K"
         id="glyph1788"
         d="m 283.42578,920.90039 a 25,25 0 0 1 -15.49609,-7.23242 L 160.81055,806.48242 a 25.0025,25.0025 0 0 1 -7.31641,-17.68359 l 0.19531,-428.58594 a 25.0025,25.0025 0 0 1 7.33594,-17.67969 L 268.30664,235.42773 a 25,25 0 0 1 35.35547,0.0293 25,25 0 0 1 -0.0293,35.35547 l -99.94922,99.7832 -0.082,178.94727 393.09766,-0.0566 189.375,-189.33594 -89.33984,-89.42187 a 25,25 0 0 1 0.0156,-35.35547 25,25 0 0 1 35.35547,0.0156 l 107.00391,107.10156 a 25.0025,25.0025 0 0 1 -0.01,35.34961 L 642.43164,574.4668 838.91602,771.01758 a 25.0025,25.0025 0 0 1 -0.004,35.35351 L 731.75195,913.5332 a 25,25 0 0 1 -24.14843,6.47071 25,25 0 0 1 -11.20704,-6.47071 25,25 0 0 1 0,-35.35547 l 89.48633,-89.48828 -189.13867,-189.20507 -393.16406,0.0586 -0.082,178.91992 99.79883,99.86133 a 25,25 0 0 1 -0.0117,35.35547 25,25 0 0 1 -11.20899,6.46679 25,25 0 0 1 -8.65039,0.75391 z" />
      <glyph
         glyph-name=""
         unicode="L"
         id="glyph1790"
         d="m 292.07422,920.14648 a 25,25 0 0 1 -24.14649,-6.48046 L 160.92383,806.56445 a 25.0025,25.0025 0 0 1 -7.31446,-17.68164 l 0.19532,-428.58593 a 25.0025,25.0025 0 0 1 7.32031,-17.66407 l 107.16406,-107.1875 a 25.0025,25.0025 0 0 1 17.67383,-7.32422 L 714.29297,228 a 25.0025,25.0025 0 0 1 17.68945,7.32617 l 107.12305,107.15821 a 25,25 0 0 1 -0.006,35.35546 25,25 0 0 1 -35.35547,-0.006 l -99.79883,-99.83203 -407.61523,0.11524 -92.5293,92.55078 -0.18555,407.88281 99.6836,99.77539 a 25,25 0 0 1 -0.0156,35.35547 25,25 0 0 1 -11.20898,6.46484 z" />
      <glyph
         glyph-name=""
         unicode="M"
         id="glyph1792"
         d="m 285.64258,920.96875 a 25.0025,25.0025 0 0 1 -17.70899,-7.32617 L 160.92578,806.56641 a 25.0025,25.0025 0 0 1 -7.31641,-17.6836 l 0.19532,-428.58593 a 25.0025,25.0025 0 0 1 7.30664,-17.64844 L 268.15625,235.40039 a 25,25 0 0 1 35.35547,-0.0332 25,25 0 0 1 0.0332,35.35547 l -99.74414,99.93164 -0.18555,407.89453 92.35157,92.41015 86.37695,-0.0879 92.52734,-92.52929 0.0254,-203.86328 a 25.0025,25.0025 0 0 1 50,0.006 l -0.0234,203.86718 92.47656,92.53321 86.36328,-0.004 92.52734,-92.54492 0.17969,-407.83203 -99.68555,-99.77539 a 25,25 0 0 1 0.0156,-35.35547 25,25 0 0 1 35.35547,0.0156 l 107.0039,107.10156 a 25.0025,25.0025 0 0 1 7.31446,17.68165 l -0.18946,428.5332 a 25.0025,25.0025 0 0 1 -7.32031,17.66406 L 731.75,913.55664 a 25.0025,25.0025 0 0 1 -17.67773,7.32422 l -107.08008,0.004 a 25.0025,25.0025 0 0 1 -17.68555,-7.32813 l -89.44141,-89.49608 -89.47851,89.47851 a 25.0025,25.0025 0 0 1 -17.65235,7.32227 z" />
      <glyph
         glyph-name=""
         unicode="N"
         id="glyph1794"
         d="M 288.07617,920.84766 A 25.0025,25.0025 0 0 1 267.9375,913.64453 L 160.8125,806.48438 a 25.0025,25.0025 0 0 1 -7.31836,-17.69336 l 0.31055,-428.5 a 25.0025,25.0025 0 0 1 7.30664,-17.64258 L 268.15625,235.40039 a 25,25 0 0 1 35.35547,-0.0332 25,25 0 0 1 0.0332,35.35547 l -99.74805,99.93554 -0.29492,407.80664 78.23633,78.26368 411.88281,-617.54102 a 25.0025,25.0025 0 0 1 38.48438,-3.79883 l 107.0039,107.10156 a 25.0025,25.0025 0 0 1 7.31446,17.68165 l -0.18946,428.53125 a 25.0025,25.0025 0 0 1 -7.32226,17.66796 L 731.75195,913.5332 a 25,25 0 0 1 -35.35547,0 25,25 0 0 1 0,-35.35547 l 99.84375,-99.84375 0.17969,-407.83007 -78.12695,-78.19727 -411.87695,617.53516 a 25.0025,25.0025 0 0 1 -18.33985,11.00586 z" />
      <glyph
         glyph-name=""
         unicode="O"
         id="glyph1796"
         d="m 285.62109,920.99609 a 25.0025,25.0025 0 0 1 -17.69336,-7.33007 L 160.92383,806.56445 a 25.0025,25.0025 0 0 1 -7.31446,-17.67578 l 0.0801,-428.66992 a 25.0025,25.0025 0 0 1 7.33594,-17.6875 L 268.30666,235.42773 a 25.0025,25.0025 0 0 1 17.65625,-7.30664 L 714.29297,228 a 25.0025,25.0025 0 0 1 17.68945,7.32617 l 107.12305,107.15821 a 25.0025,25.0025 0 0 1 7.31836,17.6875 l -0.18946,428.53125 a 25,25 0 0 1 -0.0937,0.3496 25,25 0 0 1 -3.16406,11.79102 25,25 0 0 1 -0.35937,0.62109 25,25 0 0 1 -3.70313,4.9043 L 731.75,913.55664 a 25.0025,25.0025 0 0 1 -17.67188,7.32422 z m 10.35157,-50.0039 407.73828,-0.10742 92.52734,-92.54883 0.18164,-407.82813 -92.47461,-92.50586 -407.6289,0.11524 -92.62891,92.47656 -0.0762,407.95313 z" />
      <glyph
         glyph-name=""
         unicode="P"
         id="glyph1798"
         d="m 285.62109,920.99609 a 25.0025,25.0025 0 0 1 -17.68945,-7.32812 L 160.81055,806.48242 a 25.0025,25.0025 0 0 1 -7.31641,-17.68554 l 0.26953,-535.69141 a 25,25 0 0 1 25.01367,-24.98633 25,25 0 0 1 24.98633,25.01172 L 203.61328,549.51367 714.1875,549.375 a 25.0025,25.0025 0 0 1 17.69336,7.33203 l 107.00195,107.12891 a 25.0025,25.0025 0 0 1 7.3125,17.6582 l 0.0391,107.18945 a 25.0025,25.0025 0 0 1 -7.32031,17.68555 L 731.75,913.55664 a 25.0025,25.0025 0 0 1 -17.67188,7.32422 z m 10.34961,-50.0039 407.74024,-0.10742 92.51953,-92.54102 -0.0312,-86.49023 -92.36719,-92.47461 -500.24414,0.13476 -0.0898,178.95117 z" />
      <glyph
         glyph-name=""
         unicode="Q"
         id="glyph1800"
         d="m 285.62305,920.96875 a 25.0025,25.0025 0 0 1 -17.68946,-7.32617 L 160.92578,806.56641 a 25.0025,25.0025 0 0 1 -7.3164,-17.6836 l 0.19531,-428.58593 a 25.0025,25.0025 0 0 1 7.32031,-17.66407 l 107.16406,-107.1875 a 25.0025,25.0025 0 0 1 17.67578,-7.32422 l 214.16407,-0.0352 a 25.0025,25.0025 0 0 1 17.68554,7.32812 l 142.92383,143 143.08984,-143.08984 a 25,25 0 0 1 35.35547,0 25,25 0 0 1 0,35.35547 L 696.08398,413.7793 838.95312,556.72461 a 25.0025,25.0025 0 0 1 7.31641,17.67578 l -0.0352,214.29688 a 25.0025,25.0025 0 0 1 -7.32227,17.67382 L 731.75195,913.5332 a 25.0025,25.0025 0 0 1 -17.67187,7.32227 z m 10.35156,-50.00195 407.74023,-0.10938 92.52149,-92.52148 0.0312,-193.58985 -135.53906,-135.61132 -143.0293,143.03125 a 25,25 0 0 1 -24.14844,6.4707 25,25 0 0 1 -11.20703,-6.4707 25,25 0 0 1 0,-35.35547 L 625.38281,413.76953 489.77344,278.08789 l -193.44532,0.0312 -92.52734,92.54883 -0.18555,407.88086 z" />
      <glyph
         glyph-name=""
         unicode="R"
         id="glyph1802"
         d="m 285.62305,920.96875 a 25.0025,25.0025 0 0 1 -17.68946,-7.32617 L 160.92578,806.56641 a 25.0025,25.0025 0 0 1 -7.31641,-17.67969 l 0.0625,-214.25586 a 25,25 0 0 1 -0.0215,-0.0762 25,25 0 0 1 0.008,-0.0293 25.0025,25.0025 0 0 1 -0.004,-0.0137 l 0.10937,-321.40039 v -0.002 a 25.0025,25.0025 0 0 1 50,0.0156 v 0.002 0.01 l -0.0801,280.91211 606.64063,-303.40625 a 25,25 0 0 1 33.54101,11.17578 25,25 0 0 1 -11.17578,33.54297 L 284.54102,549.51367 714.18555,549.375 a 25.0025,25.0025 0 0 1 17.69531,7.33203 l 107.00195,107.12891 a 25.0025,25.0025 0 0 1 7.3125,17.6582 l 0.0391,107.18945 a 25.0025,25.0025 0 0 1 -7.32226,17.6875 L 731.75195,913.5332 a 25.0025,25.0025 0 0 1 -17.67187,7.32227 z m 10.35156,-50.00195 407.74023,-0.10938 92.51563,-92.51562 -0.0312,-86.48828 -92.36719,-92.47461 -500.16797,0.16015 -0.0508,179.00782 z" />
      <glyph
         glyph-name=""
         unicode="S"
         id="glyph1804"
         d="m 285.62305,920.96875 a 25.0025,25.0025 0 0 1 -17.68946,-7.32617 L 160.92578,806.56641 a 25.0025,25.0025 0 0 1 -7.31641,-17.66407 l -0.0352,-107.24218 a 25.0025,25.0025 0 0 1 7.32226,-17.68555 L 268.05859,556.8125 a 25.0025,25.0025 0 0 1 17.67578,-7.32227 l 418.09571,-0.0351 92.52148,-92.50195 0.0645,-86.45313 -92.35547,-92.43945 -407.73243,0.0586 -99.84375,99.86524 a 25,25 0 0 1 -35.35546,0.004 25,25 0 0 1 -0.004,-35.35547 l 107.16406,-107.1875 a 25.0025,25.0025 0 0 1 17.67578,-7.32422 l 428.45118,-0.0625 a 25.0025,25.0025 0 0 1 17.68945,7.33008 l 107.0039,107.10156 a 25.0025,25.0025 0 0 1 7.31446,17.68946 l -0.0801,107.15625 a 25.0025,25.0025 0 0 1 -7.32422,17.66211 l -107.16009,107.1346 a 25.0025,25.0025 0 0 1 -17.67187,7.32032 l -418.09375,0.0351 -92.51563,92.51563 0.0273,86.53711 92.36914,92.42578 407.74023,-0.10938 99.8418,-99.84179 a 25,25 0 0 1 35.35547,0 25,25 0 0 1 0,35.35546 L 731.75195,913.5332 a 25.0025,25.0025 0 0 1 -17.67187,7.32227 z" />
      <glyph
         glyph-name=""
         unicode="T"
         id="glyph1806"
         d="M 285.62305,920.96875 A 25.0025,25.0025 0 0 1 267.9375,913.64453 L 160.8125,806.48438 a 25,25 0 0 1 0.006,-35.35547 25,25 0 0 1 35.35547,0.006 l 99.79883,99.83203 178.83203,-0.0371 0.32812,-617.85547 a 25,25 0 0 1 25.01172,-24.98828 25,25 0 0 1 24.98828,25.01367 l -0.32812,617.82031 178.90625,-0.0371 99.84375,-99.86523 a 25,25 0 0 1 35.35547,-0.004 25,25 0 0 1 0.004,35.35547 L 731.75,913.55664 a 25.0025,25.0025 0 0 1 -17.67383,7.32422 z" />
      <glyph
         glyph-name=""
         unicode="U"
         id="glyph1808"
         d="m 292.07617,920.14648 a 25,25 0 0 1 -24.14648,-6.47851 L 160.81055,806.48242 a 25.0025,25.0025 0 0 1 -7.31641,-17.6914 l 0.31055,-428.5 a 25.0025,25.0025 0 0 1 7.30664,-17.64258 L 268.15625,235.40039 A 25.0025,25.0025 0 0 1 285.8457,228.0625 L 714.29687,228 a 25.0025,25.0025 0 0 1 17.68555,7.32617 l 107.12305,107.15821 a 25.0025,25.0025 0 0 1 7.31836,17.6875 l -0.18946,428.53125 a 25.0025,25.0025 0 0 1 -7.32226,17.66796 L 731.75195,913.5332 a 25,25 0 0 1 -35.35547,0 25,25 0 0 1 0,-35.35547 l 99.84375,-99.84375 0.17969,-407.82617 -92.47461,-92.50586 -407.72461,0.0586 -92.42383,92.59765 -0.29492,407.8086 99.79492,99.85742 a 25,25 0 0 1 -0.0117,35.35547 25,25 0 0 1 -11.20899,6.46679 z" />
      <glyph
         glyph-name=""
         unicode="V"
         id="glyph1810"
         d="M 292.08398,920.11914 A 25,25 0 0 1 267.9375,913.64453 L 160.8125,806.48438 a 25.0025,25.0025 0 0 1 -4.67578,-28.86329 L 424.23828,241.875 a 25.0025,25.0025 0 0 1 22.35547,-13.8125 l 107.08008,-0.004 a 25.0025,25.0025 0 0 1 22.36719,13.82813 l 267.55859,535.63485 a 25.0025,25.0025 0 0 1 -4.6875,28.84961 L 731.75195,913.5332 a 25,25 0 0 1 -35.35547,0 25,25 0 0 1 0,-35.35547 l 94.42383,-94.42578 -252.60156,-505.69336 -76.17773,0.004 -253.125,505.81836 94.38281,94.41406 a 25,25 0 0 1 -0.006,35.35547 25,25 0 0 1 -11.20899,6.46875 z" />
      <glyph
         glyph-name=""
         unicode="W"
         id="glyph1812"
         d="m 292.07422,920.14648 a 25,25 0 0 1 -24.14649,-6.48046 L 160.92383,806.56445 a 25.0025,25.0025 0 0 1 -7.31446,-17.68164 l 0.19532,-428.58593 a 25.0025,25.0025 0 0 1 7.32031,-17.66407 l 107.16406,-107.1875 a 25.0025,25.0025 0 0 1 17.66797,-7.32422 l 107.08594,-0.0566 a 25.0025,25.0025 0 0 1 17.70117,7.33203 l 89.32422,89.43165 89.4707,-89.45118 a 25.0025,25.0025 0 0 1 17.67578,-7.32031 l 107.20508,0.002 a 25.0025,25.0025 0 0 1 17.68555,7.33008 l 107.0039,107.10156 a 25.0025,25.0025 0 0 1 7.31446,17.67969 l -0.18946,428.53321 a 25.0025,25.0025 0 0 1 -7.32226,17.66796 L 731.75195,913.5332 a 25,25 0 0 1 -35.35547,0 25,25 0 0 1 0,-35.35547 l 99.84375,-99.8457 0.17969,-407.82812 -92.36133,-92.44532 -86.49023,-0.002 -92.51367,92.49414 -0.0391,203.99414 a 25.0025,25.0025 0 0 1 -50,-0.01 l 0.0391,-203.99805 -92.35742,-92.4668 -86.36524,0.0449 -92.53125,92.55274 -0.18555,407.88281 99.6836,99.77539 a 25,25 0 0 1 -0.0156,35.35547 25,25 0 0 1 -11.20898,6.46484 z" />
      <glyph
         glyph-name=""
         unicode="X"
         id="glyph1814"
         d="m 285.60938,920.96875 a 25,25 0 0 1 -17.67579,-7.32617 L 160.92578,806.56641 a 25,25 0 0 1 0.0117,-35.35547 25,25 0 0 1 35.35547,0.0117 l 35.82617,35.84765 232.55078,-232.55664 -232.4043,-232.51172 -35.89843,35.90039 a 25,25 0 0 1 -24.14844,6.47071 25,25 0 0 1 -11.20703,-6.47071 25,25 0 0 1 0,-35.35546 l 53.58203,-53.58204 a 25,25 0 0 1 0.002,-0.004 25,25 0 0 1 0.004,-0.002 l 53.57227,-53.57421 a 25,25 0 0 1 35.35546,0 25,25 0 0 1 0,35.35546 l -35.90625,35.90625 232.4043,232.51172 232.54883,-232.55664 -35.83984,-35.87304 a 25,25 0 0 1 0.0156,-35.35547 25,25 0 0 1 35.35547,0.0156 l 107.00391,107.10156 a 25,25 0 0 1 -0.0156,35.35547 25,25 0 0 1 -11.20898,6.46485 25,25 0 0 1 -24.14649,-6.48047 L 767.91406,341.97266 535.37305,574.52148 767.6582,806.91406 803.55664,771.01562 a 25,25 0 0 1 35.35547,0 25,25 0 0 1 0,35.35547 l -53.58399,53.58399 -53.57617,53.57812 a 25,25 0 0 1 -24.14843,6.47071 25,25 0 0 1 -11.20704,-6.47071 25,25 0 0 1 0,-35.35547 l 35.90625,-35.9082 -232.28515,-232.39258 -232.55469,232.56055 35.83789,35.85938 a 25,25 0 0 1 -0.0117,35.35546 25,25 0 0 1 -11.20898,6.4668 25,25 0 0 1 -6.4707,0.84961 z" />
      <glyph
         glyph-name=""
         unicode="Y"
         id="glyph1816"
         d="m 714.07227,920.88086 a 25,25 0 0 1 -17.67774,-7.32031 25,25 0 0 1 -0.004,-35.35547 l 85.60547,-85.625 -281.98437,-187.9961 -282.27734,188.11719 85.56445,85.59375 a 25,25 0 0 1 -0.008,35.35547 25,25 0 0 1 -11.20704,6.46875 25,25 0 0 1 -24.14648,-6.47461 L 160.8125,806.48438 a 25.0025,25.0025 0 0 1 3.81641,-38.47852 l 310.39648,-206.85547 0.11328,-308.125 a 25,25 0 0 1 25.00781,-24.99023 25,25 0 0 1 24.99219,25.00781 l -0.11328,308.125 310.07813,206.72461 a 25.0025,25.0025 0 0 1 3.81054,38.47656 L 731.75,913.55664 a 25,25 0 0 1 -17.67773,7.32422 z" />
      <glyph
         glyph-name=""
         unicode="Z"
         id="glyph1818"
         d="m 285.62109,920.99609 a 25.0025,25.0025 0 0 1 -17.69336,-7.33007 L 160.92383,806.56445 a 25,25 0 0 1 0.0156,-35.35547 25,25 0 0 1 35.35547,0.0156 l 99.67774,99.76758 407.73828,-0.10742 L 782,792.57813 164.93555,381.10938 a 25.0025,25.0025 0 0 1 -3.82422,-38.46094 L 268.15625,235.40039 A 25.0025,25.0025 0 0 1 285.8457,228.0625 L 714.29687,228 a 25.0025,25.0025 0 0 1 17.68555,7.32617 l 107.12305,107.15821 a 25,25 0 0 1 -0.006,35.35546 25,25 0 0 1 -35.35547,-0.006 l -99.79883,-99.83203 -407.72461,0.0586 -78.20117,78.34961 617.08594,411.48242 a 25.0025,25.0025 0 0 1 3.80859,38.47656 L 731.75,913.55664 a 25.0025,25.0025 0 0 1 -17.67188,7.32422 z" />
      <glyph
         glyph-name=""
         unicode=" "
         id="glyph7096" />
      <glyph
         glyph-name=""
         unicode="1"
         id="glyph7098"
         d="m 499.79297,920.83008 a 25.0025,25.0025 0 0 1 -17.6836,-7.32617 L 268.0918,699.37891 a 25,25 0 0 1 0.01,-35.35547 25,25 0 0 1 35.35547,0.01 l 206.69336,206.79688 71.73438,-0.002 0.3164,-592.76563 -296.2207,0.0586 h -0.004 -0.002 a 25.0025,25.0025 0 0 1 -0.0117,-50 h 0.002 L 714.29297,228 A 25,25 0 0 1 739.30078,252.99219 25,25 0 0 1 714.30859,278 l -82.10742,0.0234 -0.33008,617.8164 a 25.0025,25.0025 0 0 1 -24.99804,24.98637 z" />
      <glyph
         glyph-name=""
         unicode="2"
         id="glyph7100"
         d="m 392.71289,920.86133 a 25.0025,25.0025 0 0 1 -13.86523,-4.19531 L 218.17187,809.61328 a 25.0025,25.0025 0 0 1 -8.50585,-9.64062 L 156.20117,692.86914 a 25.0025,25.0025 0 0 1 -2.63281,-11.18555 L 153.6543,574.5 a 25,25 0 0 1 25.01953,-24.98047 25,25 0 0 1 24.98047,25.01953 l -0.0801,101.28125 47.85547,95.8711 148.84179,99.16797 199.03321,-0.0312 149.0039,-99.25782 39.45899,-78.85742 L 167.50779,382.58599 A 25.0025,25.0025 0 0 1 161.0117,342.54693 L 268.17185,235.38482 a 25.0025,25.0025 0 0 1 17.67774,-7.32227 l 428.57031,-0.004 a 25.0025,25.0025 0 0 1 17.68555,7.33008 l 107.0039,107.10156 a 25,25 0 0 1 -0.0156,35.35547 25,25 0 0 1 -35.35547,-0.0156 l -99.67969,-99.77149 -407.85351,0.004 -75.31055,75.3125 611.60352,305.79883 a 25.0025,25.0025 0 0 1 11.17578,33.54883 l -53.6211,107.16015 a 25.0025,25.0025 0 0 1 -8.49804,9.61914 L 620.73242,916.63281 a 25.0025,25.0025 0 0 1 -13.85742,4.19336 z" />
      <glyph
         glyph-name=""
         unicode="3"
         id="glyph7102"
         d="m 285.62305,920.96875 a 25.0025,25.0025 0 0 1 -17.68946,-7.32617 L 160.92578,806.56641 a 25,25 0 0 1 0.0117,-35.35547 25,25 0 0 1 35.35547,0.0117 l 99.68164,99.74414 407.74023,-0.10938 92.52735,-92.52734 0.0664,-86.44922 -92.39453,-92.42773 -311.08789,0.006 h -0.006 a 25.0025,25.0025 0 0 1 -0.008,-50 h 0.006 l 311.08789,-0.082 92.44531,-92.42382 0.0645,-86.44727 -92.47071,-92.50391 -407.61523,0.11524 -99.84571,99.86719 a 25,25 0 0 1 -35.35546,0.004 25,25 0 0 1 -0.004,-35.35547 L 268.2888,235.44557 a 25.0025,25.0025 0 0 1 17.67383,-7.32422 L 714.29297,228 a 25.0025,25.0025 0 0 1 17.68945,7.32617 l 107.12305,107.15821 a 25.0025,25.0025 0 0 1 7.31836,17.69531 l -0.0801,107.15625 a 25.0025,25.0025 0 0 1 -7.32422,17.66211 l -89.4375,89.41601 89.41602,89.44727 a 25.0025,25.0025 0 0 1 7.31836,17.69336 l -0.082,107.1582 a 25.0025,25.0025 0 0 1 -7.32226,17.6582 L 731.75195,913.5332 a 25.0025,25.0025 0 0 1 -17.67187,7.32227 z" />
      <glyph
         glyph-name=""
         unicode="4"
         id="glyph7104"
         d="m 450.49805,920.49414 a 25,25 0 0 1 -23.45899,-8.63672 L 159.44141,590.54492 a 25.0025,25.0025 0 0 1 1.52929,-33.67383 L 268.13477,449.68164 a 25.0025,25.0025 0 0 1 17.67968,-7.32422 l 296.3086,-0.006 0.0957,-189.33398 a 25,25 0 0 1 25.01172,-24.98828 25,25 0 0 1 24.98828,25.01367 l -0.0957,189.30664 82.13672,-0.002 a 25.0025,25.0025 0 0 1 17.68164,7.32617 l 107.00976,107.04883 a 25,25 0 0 1 -0.006,35.35546 25,25 0 0 1 -35.35547,-0.006 l -99.6875,-99.72461 -71.80468,0.002 -0.15039,296.38477 a 25,25 0 0 1 -25.01368,24.98632 25,25 0 0 1 -24.98632,-25.01172 l 0.15039,-296.35937 -285.92578,0.008 -83.70704,83.72656 252.99414,303.7754 a 25,25 0 0 1 -3.21093,35.20898 25,25 0 0 1 -11.75,5.42578 z" />
      <glyph
         glyph-name=""
         unicode="5"
         id="glyph7106"
         d="M 178.53906,921 A 25.0025,25.0025 0 0 1 153.5332,895.99023 l 0.11719,-321.45312 a 25.0025,25.0025 0 0 1 24.99219,-24.99023 l 525.19922,-0.16797 92.50976,-92.42969 0.0645,-86.44336 -92.47071,-92.50391 -407.72465,0.0586 L 196.5,377.9707 a 25,25 0 0 1 -35.35547,0.0332 25,25 0 0 1 -0.0332,-35.35547 L 268.15625,235.40038 a 25.0025,25.0025 0 0 1 17.68945,-7.33789 L 714.29687,228 a 25.0025,25.0025 0 0 1 17.68555,7.32617 l 107.12305,107.15821 a 25.0025,25.0025 0 0 1 7.31836,17.69531 l -0.0801,107.15625 a 25.0025,25.0025 0 0 1 -7.33008,17.66797 L 731.86328,592.06055 a 25.0025,25.0025 0 0 1 -17.66211,7.31445 l -510.55859,0.16406 -0.0996,271.45508 592.6289,-0.13672 0.0625,-82.18359 a 25,25 0 0 1 25.01954,-24.98047 25,25 0 0 1 24.98046,25.01953 l -0.0801,107.15625 a 25.0025,25.0025 0 0 1 -24.99414,24.98242 z" />
      <glyph
         glyph-name=""
         unicode="6"
         id="glyph7108"
         d="M 613.33398,919.97656 A 25,25 0 0 1 589.1875,913.49805 L 161.04492,485.08594 a 25.0025,25.0025 0 0 1 -7.3164,-17.66211 l -0.0391,-107.18945 a 25.0025,25.0025 0 0 1 7.33594,-17.70313 L 268.30661,235.42773 a 25.0025,25.0025 0 0 1 17.6582,-7.30664 l 428.45118,-0.0625 a 25.0025,25.0025 0 0 1 17.68945,7.33008 l 107.0039,107.10156 a 25.0025,25.0025 0 0 1 7.31446,17.6875 l -0.0723,107.07813 a 25.0025,25.0025 0 0 1 -7.31836,17.6582 L 731.86523,592.12695 a 25.0025,25.0025 0 0 1 -17.67773,7.32618 l -368.10547,0.0527 278.47266,278.64844 a 25,25 0 0 1 -0.0117,35.35547 25,25 0 0 1 -11.20899,6.46679 z m -317.21289,-370.46289 407.70313,-0.0586 92.53515,-92.57422 0.0586,-86.37891 -92.35742,-92.4414 -407.7461,0.0586 -92.62109,92.46875 0.0312,86.47266 z" />
      <glyph
         glyph-name=""
         unicode="7"
         id="glyph7110"
         d="m 285.62305,920.96875 a 25.0025,25.0025 0 0 1 -17.68946,-7.32617 L 160.92578,806.56641 a 25,25 0 0 1 0.0117,-35.35547 25,25 0 0 1 35.35547,0.0117 l 99.68164,99.74414 407.73633,-0.084 92.52734,-92.54687 0.0605,-178.9336 -296.39649,0.0801 a 25,25 0 0 1 -25.00586,-24.99414 25,25 0 0 1 24.99414,-25.00586 l 296.42579,-0.0801 0.0234,-71.73632 -206.80859,-206.9375 a 25,25 0 0 1 0.0117,-35.35547 25,25 0 0 1 35.35547,0.0117 l 214.12695,214.26171 a 25.0025,25.0025 0 0 1 7.31836,17.67969 l -0.10937,321.375 a 25.0025,25.0025 0 0 1 -7.32032,17.66797 L 731.75,913.55664 a 25.0025,25.0025 0 0 1 -17.67383,7.32422 z" />
      <glyph
         glyph-name=""
         unicode="8"
         id="glyph7112"
         d="m 285.62305,920.96875 a 25.0025,25.0025 0 0 1 -17.68946,-7.32617 L 160.92578,806.56641 a 25.0025,25.0025 0 0 1 -7.31641,-17.66211 l -0.041,-107.19141 a 25.0025,25.0025 0 0 1 7.32031,-17.68555 l 89.51172,-89.52929 -89.35547,-89.41211 a 25.0025,25.0025 0 0 1 -7.3164,-17.66211 l -0.0391,-107.18945 a 25.0025,25.0025 0 0 1 7.33594,-17.70118 L 268.30662,235.42773 a 25.0025,25.0025 0 0 1 17.65625,-7.30664 L 714.29297,228 a 25.0025,25.0025 0 0 1 17.68945,7.32617 l 107.12305,107.15821 a 25.0025,25.0025 0 0 1 7.31836,17.69531 l -0.0801,107.15625 a 25.0025,25.0025 0 0 1 -7.32422,17.66211 l -89.47461,89.45312 89.44531,89.40235 a 25.0025,25.0025 0 0 1 7.32618,17.70117 l -0.082,107.1582 a 25.0025,25.0025 0 0 1 -7.32226,17.6582 L 731.75195,913.5332 a 25.0025,25.0025 0 0 1 -17.67187,7.32227 z m 10.35156,-50.00195 407.74219,-0.10938 92.52539,-92.52734 0.0664,-86.44336 -92.47461,-92.43164 -407.71875,0.0351 -92.54296,92.56446 0.0332,86.48437 z m 0.12109,-321.47852 407.73242,-0.0351 92.52344,-92.5 0.0645,-86.44727 -92.47071,-92.50391 -407.6289,0.11524 -92.62305,92.4707 0.0312,86.47266 z" />
      <glyph
         glyph-name=""
         unicode="9"
         id="glyph7114"
         d="m 285.62305,920.96875 a 25.0025,25.0025 0 0 1 -17.68946,-7.32617 L 160.92578,806.56641 a 25.0025,25.0025 0 0 1 -7.31641,-17.66407 l -0.0352,-107.24218 a 25.0025,25.0025 0 0 1 7.32226,-17.68555 L 268.05859,556.8125 a 25.0025,25.0025 0 0 1 17.67383,-7.32227 l 510.60938,-0.0898 0.0781,-178.89648 -92.35937,-92.44336 -407.7461,0.0586 -99.96289,99.79688 a 25,25 0 0 1 -35.35547,-0.0293 25,25 0 0 1 0.0293,-35.35547 L 268.30662,235.42778 a 25.0025,25.0025 0 0 1 17.6582,-7.30664 l 428.45118,-0.0625 a 25.0025,25.0025 0 0 1 17.68945,7.33008 l 107.0039,107.10156 a 25.0025,25.0025 0 0 1 7.31446,17.68165 l -0.18946,428.53125 a 25.0025,25.0025 0 0 1 -7.32226,17.66796 L 731.75195,913.5332 a 25.0025,25.0025 0 0 1 -17.67187,7.32227 z m 10.35156,-50.00195 407.74023,-0.10938 92.52539,-92.52344 0.0781,-178.93359 -500.22461,0.0879 -92.51563,92.51563 0.0273,86.53711 z" />
      <glyph
         glyph-name=""
         unicode="0"
         id="glyph7116"
         d="M 392.70703,920.96484 A 25.0025,25.0025 0 0 1 371.88867,909.82227 L 157.8457,588.37695 a 25.0025,25.0025 0 0 1 -4.1914,-13.875 l 0.15039,-214.21093 a 25.0025,25.0025 0 0 1 7.30664,-17.64258 L 268.15625,235.40039 A 25.0025,25.0025 0 0 1 285.8457,228.0625 L 714.29688,228 a 25.0025,25.0025 0 0 1 17.68554,7.32617 l 107.12305,107.15821 a 25.0025,25.0025 0 0 1 7.31836,17.69335 l -0.1543,214.23829 a 25.0025,25.0025 0 0 1 -4.19726,13.8457 L 627.79297,909.75 a 25,25 0 0 1 -0.2793,0.24414 25,25 0 0 1 -9.19922,8.08984 25,25 0 0 1 -0.60937,0.28516 A 25,25 0 0 1 607,920.88477 Z m 13.375,-50.0039 187.52344,-0.0703 202.66992,-304.07031 0.14063,-196.31445 -92.47071,-92.50391 -407.72461,0.0586 -92.42382,92.59765 -0.13672,196.3086 z" />
      <glyph
         glyph-name=""
         unicode="!"
         id="glyph7266"
         d="M 606.97852,920.88477 499.7793,920.83008 A 25.0025,25.0025 0 0 1 475.54102,889.75977 L 582.80859,461.22266 a 25,25 0 0 1 1.69727,-3.05664 25,25 0 0 1 3.08984,-5.56055 25,25 0 0 1 4.4961,-4.49219 25,25 0 0 1 5.45312,-3.27148 25,25 0 0 1 6.14063,-1.64453 25,25 0 0 1 3.3789,-0.9043 25,25 0 0 1 5.73243,0.75391 25,25 0 0 1 0.33398,-0.006 25,25 0 0 1 1.23242,0.42578 25,25 0 0 1 2.05664,0.71093 25,25 0 0 1 1.96094,0.91407 25,25 0 0 1 1.9082,1.06054 25,25 0 0 1 1.77539,1.24219 25,25 0 0 1 1.70313,1.38281 25,25 0 0 1 1.52148,1.52344 25,25 0 0 1 1.42969,1.64649 25,25 0 0 1 1.25586,1.79492 25,25 0 0 1 1.10937,1.85156 25,25 0 0 1 0.92188,1.97461 25,25 0 0 1 0.77734,2.0293 25,25 0 0 1 0.56446,2.10937 25,25 0 0 1 0.41015,2.12891 25,25 0 0 1 0.18946,2.16406 25,25 0 0 1 0.11328,1.29688 l -0.0703,428.59179 a 25.0025,25.0025 0 0 1 -25.01171,24.9961 z m -24.98438,-50.01368 0.0332,-200.61523 -50.21093,200.58984 z m 25.24219,-485.625 -107.19531,-0.0801 a 25.0025,25.0025 0 0 1 -24.98047,-25.01758 l 0.0781,-107.13282 a 25.0025,25.0025 0 0 1 24.99805,-24.98046 l 107.07226,-0.006 h 0.008 a 25,25 0 0 1 5.90039,1.58203 25,25 0 0 1 6.59765,1.76758 25,25 0 0 1 0.002,0 25,25 0 0 1 9.14843,9.14453 25,25 0 0 1 0,0.002 25,25 0 0 1 1.76954,6.58984 25,25 0 0 1 1.58398,5.90625 v 0.008 l 0.0371,107.20898 a 25.0025,25.0025 0 0 1 -25.01953,25.00781 z m -24.98828,-50.01757 -0.0215,-57.19727 -57.10742,0.002 -0.041,57.15235 z" />
      <glyph
         glyph-name=""
         unicode="@"
         id="glyph7268"
         d="m 392.78125,813.80859 a 25.0025,25.0025 0 0 1 -17.68359,-7.32617 L 267.97461,699.32227 a 25.0025,25.0025 0 0 1 -7.32031,-17.69336 l 0.16015,-214.28907 a 25.0025,25.0025 0 0 1 7.32227,-17.66015 L 375.29883,342.51758 a 25.0025,25.0025 0 0 1 17.67773,-7.32227 l 160.61914,-0.006 a 25,25 0 0 1 25,25 25,25 0 0 1 -24.99804,25 l -150.26563,0.006 -92.52539,92.52539 -0.14453,193.58203 92.47266,92.50391 193.57421,-0.0254 92.52344,-92.54492 0.0234,-178.88672 -57.09375,0.006 -0.13086,189.19922 a 25.0025,25.0025 0 0 1 -24.98047,24.98242 l -107.08789,0.082 a 25.0025,25.0025 0 0 1 -17.70117,-7.32422 L 375.25195,592.24414 a 25.0025,25.0025 0 0 1 -7.31836,-17.66406 l -0.041,-107.18945 a 25.0025,25.0025 0 0 1 24.99609,-25.00977 l 214.28125,-0.0215 a 25,25 0 0 1 0.0273,-0.008 25,25 0 0 1 0.082,0.008 l 106.97851,-0.0117 a 25.0025,25.0025 0 0 1 25.00196,25.0039 l -0.0293,214.24414 a 25.0025,25.0025 0 0 1 -7.32031,17.67188 l -107.164,107.1875 a 25.0025,25.0025 0 0 1 -17.67578,7.32422 z m 117.51172,-157.19726 71.75586,-0.0547 0.11328,-164.19531 -164.25977,0.0176 0.0274,71.83398 z" />
      <glyph
         glyph-name=""
         unicode="."
         id="glyph7270"
         d="m 607.17773,492.32617 -107.20312,-0.0273 a 25.0025,25.0025 0 0 1 -24.99414,-25.01758 l 0.0762,-107.10156 v -0.006 a 25,25 0 0 1 2.13281,-7.9336 25,25 0 0 1 1.22461,-4.56054 25,25 0 0 1 3.05664,-3.05469 25,25 0 0 1 6.10157,-6.0918 25,25 0 0 1 12.49609,-3.33984 25,25 0 0 1 0.006,-0.002 25,25 0 0 1 0.0215,0.002 l 107.17188,0.0527 a 25.0025,25.0025 0 0 1 24.98828,25.01758 l -0.0723,107.08008 a 25.0025,25.0025 0 0 1 -25.00586,24.98242 z m -24.97656,-50.00586 0.0371,-57.08593 -57.19922,-0.0293 -0.041,57.09961 z" />
      <glyph
         glyph-name=""
         unicode="-"
         id="glyph7272"
         d="m 285.74414,599.49023 a 25,25 0 0 1 -25.00781,-24.99414 25,25 0 0 1 24.99414,-25.00586 L 714.1875,549.375 a 25,25 0 0 1 25.00586,24.99414 25,25 0 0 1 -24.99219,25.00586 z" />
      <glyph
         glyph-name=""
         unicode=","
         id="glyph7274"
         d="m 607.17383,492.35156 -107.20313,-0.0273 a 25.0025,25.0025 0 0 1 -24.99218,-25.01953 l 0.0781,-107.13086 a 25.0025,25.0025 0 0 1 25.01172,-24.98242 l 46.7793,0.0234 -64.40039,-64.45898 a 25,25 0 0 1 0.0156,-35.35547 25,25 0 0 1 35.35547,0.0156 l 106.42187,106.51953 a 25.0025,25.0025 0 0 1 8.01563,18.32812 l -0.0762,107.10547 a 25.0025,25.0025 0 0 1 -25.00586,24.98242 z m -24.97656,-50.00586 0.041,-57.11132 -57.19922,-0.0293 -0.043,57.125 z" />
      <glyph
         glyph-name=""
         unicode="$"
         id="glyph7276"
         d="m 392.70703,920.96484 a 25.0025,25.0025 0 0 1 -17.69141,-7.32422 L 267.89258,806.48047 a 25.0025,25.0025 0 0 1 -7.31836,-17.69336 l 0.0801,-107.1582 a 25.0025,25.0025 0 0 1 7.32422,-17.66016 l 107.1582,-107.13672 a 25.0025,25.0025 0 0 1 17.67383,-7.32031 l 82.16797,-0.0117 0.14648,-271.42188 -71.7168,0.0117 -99.83984,99.81641 a 25,25 0 0 1 -35.35352,-0.004 25,25 0 0 1 0.002,-35.35546 L 375.37695,235.41016 a 25.0025,25.0025 0 0 1 17.66993,-7.32032 l 106.91406,-0.0156 a 25,25 0 0 1 0.1914,-0.0391 25,25 0 0 1 0.47852,0.0371 l 106.58008,-0.0156 a 25.0025,25.0025 0 0 1 17.68945,7.33008 L 731.9043,342.48828 a 25.0025,25.0025 0 0 1 7.31445,17.66016 l 0.041,107.18945 a 25.0025,25.0025 0 0 1 -7.32422,17.68945 L 624.77734,592.16406 a 25.0025,25.0025 0 0 1 -17.67187,7.32032 l -82.15235,0.01 -0.14648,271.42188 71.82227,-0.0273 99.8457,-99.86719 a 25,25 0 0 1 35.35547,-0.004 25,25 0 0 1 0.004,35.35547 L 624.66992,913.56055 A 25.0025,25.0025 0 0 1 607,920.88477 Z m 10.34375,-50.0039 71.75586,-0.0274 0.14648,-271.43359 -71.78515,0.01 -92.52149,92.50195 -0.0645,86.44922 z m 121.92774,-321.4668 71.76757,-0.01 92.50977,-92.49024 -0.0332,-86.48437 -92.36914,-92.45118 -71.72852,0.0117 z" />
      <glyph
         glyph-name=""
         unicode="€"
         id="glyph7278"
         d="m 285.62109,920.99609 a 25.0025,25.0025 0 0 1 -17.6914,-7.32812 L 160.81055,806.48242 a 25.0025,25.0025 0 0 1 -7.31641,-17.6914 l 0.31055,-428.5 a 25.0025,25.0025 0 0 1 7.30664,-17.64258 L 268.15625,235.40039 a 25.0025,25.0025 0 0 1 17.69336,-7.33789 l 428.57031,-0.004 a 25.0025,25.0025 0 0 1 17.68555,7.33008 l 107.00391,107.10156 a 25,25 0 0 1 -0.0156,35.35547 25,25 0 0 1 -35.35547,-0.0156 l -99.67969,-99.77149 -407.83984,0.004 -92.42187,92.5957 -0.0898,125.30274 510.51563,-0.11328 a 25,25 0 0 1 25.00586,24.99609 25,25 0 0 1 -24.99414,25.00391 l -510.56446,0.11328 -0.041,57.13086 510.51757,-0.13868 a 25,25 0 0 1 25.00586,24.99415 25,25 0 0 1 -24.99218,25.00585 l -510.56836,0.14063 -0.0899,125.37305 92.46875,92.52539 407.74024,-0.10742 99.84375,-99.86719 a 25,25 0 0 1 35.35547,-0.004 25,25 0 0 1 0.004,35.35547 L 731.75,913.55664 a 25.0025,25.0025 0 0 1 -17.67188,7.32422 z" />
      <glyph
         glyph-name=""
         unicode="£"
         id="glyph7280"
         d="m 392.70508,920.96484 a 25.0025,25.0025 0 0 1 -17.68946,-7.32422 L 267.89258,806.48047 a 25.0025,25.0025 0 0 1 -7.31836,-17.69336 l 0.14062,-189.27344 -82.05859,0.006 a 25,25 0 0 1 -25.00195,-24.99805 25,25 0 0 1 24.99804,-25.00195 l 82.09766,-0.006 0.20117,-271.39258 -82.18555,-0.002 h -0.002 a 25.0025,25.0025 0 0 1 -0.002,-50 h 0.002 l 535.6543,-0.0605 a 25.0025,25.0025 0 0 1 17.6875,7.33008 l 107.00391,107.10156 a 25,25 0 0 1 -0.0156,35.35547 25,25 0 0 1 -35.35547,-0.0156 l -99.67969,-99.76953 -393.10742,0.043 -0.20117,271.40429 296.34961,-0.0234 a 25,25 0 0 1 25.00195,24.99804 25,25 0 0 1 -24.99804,25.00196 l -296.39063,0.0234 -0.13281,178.95313 92.4707,92.50195 300.66406,-0.10351 99.8418,-99.84376 a 25,25 0 0 1 35.35547,0 25,25 0 0 1 0,35.35547 L 731.75195,913.5332 a 25.0025,25.0025 0 0 1 -17.66992,7.32227 z" />
      <glyph
         glyph-name=""
         unicode="+"
         id="glyph7282"
         d="M 499.85938,813.69922 A 25,25 0 0 1 474.87109,788.6875 l 0.084,-189.24805 -189.21094,0.0508 a 25,25 0 0 1 -25.00781,-24.99414 25,25 0 0 1 24.99414,-25.00586 l 189.24609,-0.0508 0.084,-189.28515 a 25,25 0 0 1 25.00976,-24.98828 25,25 0 0 1 24.99024,25.01171 l -0.084,189.24805 189.21094,-0.0508 a 25,25 0 0 1 25.00586,24.99414 25,25 0 0 1 -24.99219,25.00586 l -189.24609,0.0508 -0.084,189.28516 a 25,25 0 0 1 -25.01171,24.98828 z" />
      <glyph
         glyph-name=""
         unicode="/"
         id="glyph7284"
         d="M 659.02148,920.83789 A 25,25 0 0 1 638.16406,907.05273 L 317.14648,264.26172 a 25,25 0 0 1 11.19532,-33.53516 25,25 0 0 1 33.53711,11.19532 l 321.01757,642.79101 a 25,25 0 0 1 -11.19531,33.53711 25,25 0 0 1 -12.67969,2.58789 z" />
      <glyph
         glyph-name=""
         unicode=":"
         id="glyph7286"
         d="m 499.96289,706.61914 a 25.0025,25.0025 0 0 1 -25.01953,-25.01562 l 0.0723,-107.05079 v -0.0293 a 25,25 0 0 1 1.57813,-5.8711 25,25 0 0 1 1.77539,-6.61328 25,25 0 0 1 4.57422,-4.57812 25,25 0 0 1 4.57422,-4.56836 25,25 0 0 1 6.61523,-1.77539 25,25 0 0 1 5.86914,-1.57617 h 0.0293 l 107.05664,-0.0566 A 25.0025,25.0025 0 0 1 632.10156,574.5 l -0.0703,107.05273 a 25.0025,25.0025 0 0 1 -24.98047,24.98438 z m 24.99805,-50.01953 57.08789,-0.043 0.0371,-57.05859 -57.08789,0.0293 z m 82.27539,-271.35352 -107.19531,-0.0801 a 25.0025,25.0025 0 0 1 -24.98047,-25.01758 l 0.0781,-107.13282 a 25.0025,25.0025 0 0 1 25.00391,-24.98046 l 107.07812,0.0215 a 25.0025,25.0025 0 0 1 24.99414,24.99024 l 0.041,107.18945 a 25.0025,25.0025 0 0 1 -25.01953,25.00976 z m -24.99024,-50.01953 -0.0215,-57.17578 -57.10547,-0.0117 -0.041,57.14649 z" />
      <glyph
         glyph-name=""
         unicode=";"
         id="glyph7288"
         d="m 499.96289,706.61914 a 25.0025,25.0025 0 0 1 -25.01953,-25.01562 l 0.0723,-107.08008 a 25.0025,25.0025 0 0 1 24.97461,-24.98242 l 107.0918,-0.10938 a 25.0025,25.0025 0 0 1 25.02539,25.01758 l -0.0762,107.10547 a 25.0025,25.0025 0 0 1 -24.98047,24.98242 z m 24.99805,-50.01953 57.08789,-0.043 0.041,-57.09961 -57.09179,0.0586 z M 499.98242,492.29688 A 25.0025,25.0025 0 0 1 474.98047,467.2793 l 0.0762,-107.10547 a 25.0025,25.0025 0 0 1 24.99805,-24.98242 l 46.80273,-0.002 -64.40625,-64.42773 a 25,25 0 0 1 0.006,-35.35547 25,25 0 0 1 35.35547,0.006 l 107.12305,107.16016 a 25.0025,25.0025 0 0 1 7.32031,17.7207 l -0.19531,107.04687 a 25.0025,25.0025 0 0 1 -24.99805,24.95313 z m 25.01563,-50 57.10742,-0.002 0.10351,-57.10547 -57.16992,0.002 z" />
      <glyph
         glyph-name=""
         unicode="&lt;"
         id="glyph7290"
         d="m 715.64453,813.70508 a 25,25 0 0 1 -12.67773,-2.5957 L 274.55469,596.84961 a 25.0025,25.0025 0 0 1 -0.002,-44.71875 L 703.03516,337.79883 a 25,25 0 0 1 33.54296,11.17578 25,25 0 0 1 -11.17382,33.54297 l -383.78125,191.9707 383.70898,191.90234 a 25,25 0 0 1 11.17578,33.54102 25,25 0 0 1 -20.86328,13.77344 z" />
      <glyph
         glyph-name=""
         unicode="="
         id="glyph7292"
         d="m 285.78516,706.70703 a 25,25 0 0 1 -25.01172,-24.98828 25,25 0 0 1 24.99023,-25.01172 l 428.33985,-0.19922 a 25,25 0 0 1 25.01171,24.98828 25,25 0 0 1 -24.98828,25.01172 z m 0.0332,-214.34961 a 25,25 0 0 1 -25.00391,-24.99609 25,25 0 0 1 24.9961,-25.00391 l 428.45117,-0.0625 a 25,25 0 0 1 25.0039,24.99805 25,25 0 0 1 -24.99609,25.00195 z" />
      <glyph
         glyph-name=""
         unicode="&gt;"
         id="glyph7294"
         d="m 284.20508,813.76758 a 25,25 0 0 1 -20.86524,-13.77149 25,25 0 0 1 11.17383,-33.54297 L 658.29883,574.45898 274.58789,382.58008 a 25,25 0 0 1 -11.17969,-33.54102 25,25 0 0 1 33.54102,-11.17968 l 428.41601,214.23437 a 25.0025,25.0025 0 0 1 0.004,44.71875 L 296.88281,811.16992 a 25,25 0 0 1 -12.67773,2.59766 z" />
      <glyph
         glyph-name=""
         unicode="?"
         id="glyph7296"
         d="m 285.62305,920.9707 a 25.0025,25.0025 0 0 1 -17.68946,-7.32812 L 160.92578,806.56641 a 25.0025,25.0025 0 0 1 -7.31641,-17.66211 l -0.041,-107.19141 a 25,25 0 0 1 24.99023,-25.00976 25,25 0 0 1 25.00977,24.99218 l 0.0371,96.84375 92.36914,92.42774 407.74219,-0.10938 92.52539,-92.52734 0.0664,-86.44922 -313.93164,-314.01367 a 25.0025,25.0025 0 0 1 -1.95508,-3.19336 25,25 0 0 1 -2.62695,-4.28906 25.0025,25.0025 0 0 1 -1.86719,-6.99414 25,25 0 0 1 -0.86718,-3.24219 l 0.0781,-107.13281 a 25.0025,25.0025 0 0 1 24.99805,-24.98047 l 107.08008,-0.006 a 25.0025,25.0025 0 0 1 25.00195,24.99218 l 0.0371,107.2168 a 25.0025,25.0025 0 0 1 -25.01367,25.00781 l -46.8125,-0.0234 278.56836,278.63672 a 25.0025,25.0025 0 0 1 7.31836,17.69531 l -0.082,107.1582 a 25.0025,25.0025 0 0 1 -7.32226,17.6582 L 731.75195,913.5332 a 25.0025,25.0025 0 0 1 -17.67187,7.32227 z m 296.62304,-585.73828 -0.0195,-57.20117 -57.10742,0.002 -0.041,57.17188 z" />
      <glyph
         glyph-name=""
         unicode="¥"
         id="glyph7472"
         d="m 283.42969,920.87305 a 25,25 0 0 1 -15.4961,-7.23047 L 160.92578,806.56641 a 25.0025,25.0025 0 0 1 3.80664,-38.4668 l 252.66992,-168.62109 -131.66406,0.0117 a 25,25 0 0 1 -25.00195,-24.99804 25,25 0 0 1 24.99805,-25.00196 l 189.29492,-0.0156 0.0195,-57.12109 -189.23242,0.004 a 25,25 0 0 1 -25.00196,-24.99804 25,25 0 0 1 25,-25.00196 l 189.25196,-0.004 0.0664,-189.2754 a 25,25 0 0 1 25.00781,-24.99218 25,25 0 0 1 24.99219,25.00976 l -0.0664,189.25586 189.19336,-0.004 a 25,25 0 0 1 25,25 25,25 0 0 1 -25,25 l -189.21094,0.004 -0.0195,57.11719 189.15234,-0.0156 a 25,25 0 0 1 25.00195,24.99805 25,25 0 0 1 -24.99609,25.00195 l -131.74219,0.0117 252.65625,168.42578 a 25.0025,25.0025 0 0 1 3.81055,38.48047 L 731.75195,913.5332 a 25,25 0 0 1 -35.35547,0 25,25 0 0 1 0,-35.35547 L 781.99414,792.57812 499.9043,604.5332 217.83203,792.77539 l 85.46875,85.52149 a 25,25 0 0 1 -0.0117,35.35546 25,25 0 0 1 -11.20898,6.4668 25,25 0 0 1 -8.65039,0.75391 z" />
      <glyph
         glyph-name=""
         unicode="("
         id="glyph7558"
         d="M 600.51953,920.0332 A 25,25 0 0 1 589.3125,913.5625 L 375.06055,699.29492 a 25.0025,25.0025 0 0 1 -7.32227,-17.69531 l 0.1543,-214.23828 a 25.0025,25.0025 0 0 1 7.32226,-17.6582 L 589.53711,235.37891 a 25,25 0 0 1 35.35547,0 25,25 0 0 1 0,35.35547 l -207.00781,207.00781 -0.13868,193.52734 206.92188,206.93945 a 25,25 0 0 1 0,35.35352 25,25 0 0 1 -24.14844,6.4707 z" />
      <glyph
         glyph-name=""
         unicode=")"
         id="glyph7560"
         d="m 399.17383,920.00977 a 25,25 0 0 1 -24.14649,-6.47461 25,25 0 0 1 0.008,-35.35547 l 206.98632,-206.89844 0.0371,-193.64062 -206.6914,-206.88086 a 25,25 0 0 1 0.0156,-35.35547 25,25 0 0 1 35.35547,0.0176 l 214.00766,214.20115 a 25.0025,25.0025 0 0 1 7.31446,17.67578 l -0.041,214.34765 a 25.0025,25.0025 0 0 1 -7.32617,17.67579 l -214.31057,214.2207 a 25,25 0 0 1 -11.20898,6.4668 z" />
    </font>
</defs>
</svg>
