<?xml version="1.0" encoding="UTF-8" standalone="no"?>
<!-- Created with Inkscape (http://www.inkscape.org/) -->

<svg
   width="3425.5835mm"
   height="754.48651mm"
   viewBox="0 0 3425.5835 754.48651"
   version="1.1"
   id="svg5"
   inkscape:version="1.2.2 (b0a8486541, 2022-12-01)"
   sodipodi:docname="argonpetitions.svg"
   xml:space="preserve"
   xmlns:inkscape="http://www.inkscape.org/namespaces/inkscape"
   xmlns:sodipodi="http://sodipodi.sourceforge.net/DTD/sodipodi-0.dtd"
   xmlns="http://www.w3.org/2000/svg"
   xmlns:svg="http://www.w3.org/2000/svg"><sodipodi:namedview
     id="namedview7"
     pagecolor="#ffffff"
     bordercolor="#666666"
     borderopacity="1.0"
     inkscape:showpageshadow="2"
     inkscape:pageopacity="0.0"
     inkscape:pagecheckerboard="0"
     inkscape:deskcolor="#d1d1d1"
     inkscape:document-units="mm"
     showgrid="false"
     inkscape:zoom="0.049543622"
     inkscape:cx="6438.7702"
     inkscape:cy="2694.5951"
     inkscape:window-width="1920"
     inkscape:window-height="1016"
     inkscape:window-x="0"
     inkscape:window-y="27"
     inkscape:window-maximized="1"
     inkscape:current-layer="layer1" /><defs
     id="defs2" /><g
     inkscape:label="Layer 1"
     inkscape:groupmode="layer"
     id="layer1"
     transform="translate(1173.1347,-677.86725)"><g
       id="g8752"
       style="stroke:#ffffff;stroke-width:50;stroke-linecap:round;stroke-linejoin:round;stroke-dasharray:none;stroke-opacity:1"><path
         style="fill:none;stroke:#ffffff;stroke-width:50;stroke-linecap:round;stroke-linejoin:round;stroke-dasharray:none;stroke-opacity:1"
         d="m -369.83652,993.17555 -0.20558,-241.8486 48.35138,-48.3514 h 193.61432 l 48.334323,48.3587 0.2055,241.9498"
         id="path2548-6" /><path
         style="fill:none;stroke:#ffffff;stroke-width:50;stroke-linecap:round;stroke-linejoin:round;stroke-dasharray:none;stroke-opacity:1"
         d="m -369.59054,872.19725 289.951213,0.1119"
         id="path2550-21" /></g><path
       style="fill:none;stroke:#ffffff;stroke-width:50;stroke-linecap:round;stroke-linejoin:round;stroke-dasharray:none;stroke-opacity:1"
       d="m 1150.3132,993.17555 -0.2057,-241.9504 48.3518,-48.2496 193.779,290.2 48.376,-48.2429 -0.1884,-241.9571"
       id="path2558-2" /><path
       style="fill:none;stroke:#ffffff;stroke-width:50;stroke-linecap:round;stroke-linejoin:round;stroke-dasharray:none;stroke-opacity:1"
       d="M 10.162193,993.06725 9.9565928,751.11695 58.349773,702.86725 H 251.92238 l 48.3343,48.3587 v 48.3514 l -47.9245,48.4377 H 10.408163 l 290.054017,145.1608"
       id="path4017-5" /><path
       style="fill:none;stroke:#ffffff;stroke-width:50;stroke-linecap:round;stroke-linejoin:round;stroke-dasharray:none;stroke-opacity:1"
       d="m 769.8107,751.32705 48.3931,-48.3514 h 193.5726 l 48.3343,48.3587 0.2226,193.5917 -48.3931,48.2496 H 818.4094 l -48.3932,-48.3514 -0.2055,-193.4972"
       id="path5192-3" /><path
       style="fill:none;stroke:#ffffff;stroke-width:50;stroke-linecap:round;stroke-linejoin:round;stroke-dasharray:none;stroke-opacity:1"
       d="m 680.52084,823.94755 -0.4687,-72.6133 -48.3343,-48.3587 h -193.6144 l -48.3514,48.3514 0.2056,193.4972 48.3514,48.3514 193.5972,0.1085 48.3514,-48.3514 0.2461,-48.4506 -145.1206,-48.3588"
       id="path6365-9"
       sodipodi:nodetypes="ccccccccccc" /><path
       style="fill:none;stroke:#8f4fd7;stroke-width:50;stroke-linecap:round;stroke-linejoin:round;stroke-dasharray:none;stroke-opacity:1"
       d="m -1148.0087,1407.0025 -0.126,-249.9446 49.9821,-49.9992 199.9093,0.041 50.00125,50.0123 0.0383,49.9981 -49.98635,49.9625 -249.8713,-0.043"
       id="path690" /><g
       id="g1266"
       transform="translate(-1480.9485,1167.2835)"
       style="stroke:#8f4fd7;stroke-opacity:1"><path
         style="fill:none;stroke:#8f4fd7;stroke-width:50;stroke-linecap:round;stroke-linejoin:round;stroke-dasharray:none;stroke-opacity:1"
         d="m 1017.2093,-10.12529 -50.00126,-50.012203 -199.90927,-0.0413 -49.92799,49.959603 0.0367,200.01034 50.05547,49.9728 199.85251,0.0564 49.98204,-49.9991"
         id="path692" /><path
         style="fill:none;stroke:#8f4fd7;stroke-width:50;stroke-linecap:round;stroke-linejoin:round;stroke-dasharray:none;stroke-opacity:1"
         d="m 717.39137,89.804314 249.87411,0.0676"
         id="path694" /></g><path
       style="fill:none;stroke:#8f4fd7;stroke-width:50;stroke-linecap:round;stroke-linejoin:round;stroke-dasharray:none;stroke-opacity:1"
       d="m -229.31988,1407.1094 -0.1588,-299.8939 -149.8937,-0.079 299.835803,0.07"
       id="path696" /><path
       style="fill:none;stroke:#8f4fd7;stroke-width:50;stroke-linecap:round;stroke-linejoin:round;stroke-dasharray:none;stroke-opacity:1"
       d="m 5.089423,1107.1825 149.892197,0.067 0.163,299.9306 -149.947897,-0.039 299.893197,0.054 -149.9479,-0.039 -0.1604,-299.9062 h 149.9437"
       id="path698" /><path
       style="fill:none;stroke:#8f4fd7;stroke-width:50;stroke-linecap:round;stroke-linejoin:round;stroke-dasharray:none;stroke-opacity:1"
       d="m 389.55142,1107.2042 149.8939,0.079 0.1613,299.9183 -0.1613,-299.9183 149.942,-0.01"
       id="path700" /><path
       style="fill:none;stroke:#8f4fd7;stroke-width:50;stroke-linecap:round;stroke-linejoin:round;stroke-dasharray:none;stroke-opacity:1"
       d="m 774.01332,1107.2717 149.873,0.032 0.1262,299.9439 -149.9478,-0.039 299.89328,0.054 -149.94818,-0.039 -0.1235,-299.9195 149.90708,0.016"
       id="path702" /><path
       style="fill:none;stroke:#8f4fd7;stroke-width:50;stroke-linecap:round;stroke-linejoin:round;stroke-dasharray:none;stroke-opacity:1"
       d="m 1158.4202,1157.3157 49.9999,-49.955 199.817,-0.01 50.0012,50.0122 0.088,199.9466 -49.9822,49.9991 -199.9083,-0.029 -49.9454,-50.0395 -0.071,-199.925"
       id="path704" /><path
       style="fill:none;stroke:#8f4fd7;stroke-width:50;stroke-linecap:round;stroke-linejoin:round;stroke-dasharray:none;stroke-opacity:1"
       d="m 1543.0244,1407.2999 -0.072,-249.9842 49.9264,-49.9718 200.0184,300.0113 49.9821,-49.9991 -0.1264,-249.9446"
       id="path706" /><path
       style="fill:none;stroke:#8f4fd7;stroke-width:50;stroke-linecap:round;stroke-linejoin:round;stroke-dasharray:none;stroke-opacity:1"
       d="m 2227.3598,1157.3637 -50.0012,-50.0122 -199.911,-0.053 -49.9263,49.9718 -0.016,50.0375 50.0001,50.0001 199.9068,0.017 50.0025,50.0244 0.034,49.9615 -49.9264,49.9718 -199.9083,-0.029 -50.0012,-50.0122"
       id="path708" /></g></svg>
