<?xml version="1.0" encoding="UTF-8" standalone="no"?>
<!-- Created with Inkscape (http://www.inkscape.org/) -->

<svg
   width="237.66"
   height="237.66"
   viewBox="0 0 62.880878 62.880878"
   version="1.1"
   id="svg5"
   inkscape:version="1.1.2 (0a00cf5339, 2022-02-04)"
   sodipodi:docname="cooler-colored-dark.svg"
   xmlns:inkscape="http://www.inkscape.org/namespaces/inkscape"
   xmlns:sodipodi="http://sodipodi.sourceforge.net/DTD/sodipodi-0.dtd"
   xmlns:xlink="http://www.w3.org/1999/xlink"
   xmlns="http://www.w3.org/2000/svg"
   xmlns:svg="http://www.w3.org/2000/svg">
  <sodipodi:namedview
     id="namedview7"
     pagecolor="#ffffff"
     bordercolor="#666666"
     borderopacity="1.0"
     inkscape:pageshadow="2"
     inkscape:pageopacity="0.0"
     inkscape:pagecheckerboard="0"
     inkscape:document-units="mm"
     showgrid="false"
     inkscape:object-paths="true"
     inkscape:snap-intersection-paths="true"
     inkscape:snap-smooth-nodes="true"
     inkscape:snap-midpoints="true"
     inkscape:snap-object-midpoints="true"
     inkscape:snap-center="true"
     inkscape:snap-global="false"
     fit-margin-top="0"
     fit-margin-left="0"
     fit-margin-right="0"
     fit-margin-bottom="0"
     inkscape:zoom="1.675562"
     inkscape:cx="-24.767809"
     inkscape:cy="119.66134"
     inkscape:window-width="1920"
     inkscape:window-height="1016"
     inkscape:window-x="0"
     inkscape:window-y="27"
     inkscape:window-maximized="1"
     inkscape:current-layer="g42252"
     units="px" />
  <defs
     id="defs2">
    <rect
       x="1329.978"
       y="45.673031"
       width="649.08801"
       height="216.5414"
       id="rect34010" />
    <linearGradient
       inkscape:collect="always"
       id="linearGradient18808">
      <stop
         style="stop-color:#c53fe9;stop-opacity:1"
         offset="0"
         id="stop18804" />
      <stop
         style="stop-color:#f0d11c;stop-opacity:1"
         offset="1"
         id="stop18806" />
    </linearGradient>
    <linearGradient
       inkscape:collect="always"
       id="linearGradient18642">
      <stop
         style="stop-color:#de55dd;stop-opacity:1"
         offset="0"
         id="stop18638" />
      <stop
         style="stop-color:#e5e227;stop-opacity:1"
         offset="1"
         id="stop18640" />
    </linearGradient>
    <inkscape:path-effect
       effect="fill_between_many"
       method="originald"
       linkedpaths="#g38,0,1"
       id="path-effect20271"
       is_visible="true"
       lpeversion="0"
       join="true"
       close="true"
       autoreverse="true"
       applied="false" />
    <inkscape:path-effect
       effect="fill_between_many"
       method="originald"
       linkedpaths="#g38,0,1|#rect20315,0,1"
       id="path-effect20507"
       is_visible="true"
       lpeversion="0"
       join="true"
       close="true"
       autoreverse="true"
       applied="false" />
    <linearGradient
       inkscape:collect="always"
       xlink:href="#linearGradient18642"
       id="linearGradient42000"
       gradientUnits="userSpaceOnUse"
       gradientTransform="translate(231.21863,52.2202)"
       x1="237.86409"
       y1="52.964233"
       x2="257.13528"
       y2="52.964233" />
    <linearGradient
       inkscape:collect="always"
       xlink:href="#linearGradient18808"
       id="linearGradient42002"
       gradientUnits="userSpaceOnUse"
       gradientTransform="translate(231.21863,52.2202)"
       x1="236.34998"
       y1="62.989937"
       x2="255.25349"
       y2="51.086491" />
  </defs>
  <g
     inkscape:label="Livello 1"
     inkscape:groupmode="layer"
     id="layer1"
     transform="translate(-422.72852,-194.77188)">
    <g
       id="g42252"
       transform="translate(-21.166667,137.58336)">
      <path
         style="fill:url(#linearGradient42000);fill-opacity:1;stroke:none;stroke-width:0.264583px;stroke-linecap:butt;stroke-linejoin:miter;stroke-opacity:1"
         d="m 469.21539,105.18849 c -0.0831,0.43047 18.49629,-6.596667 18.9884,-1.47389 0.69826,7.26885 -19.07928,5.07552 -18.9884,1.47389 z"
         id="path14101-1-6-9"
         sodipodi:nodetypes="csc" />
      <path
         style="fill:url(#linearGradient42002);fill-opacity:1;stroke:none;stroke-width:0.264583px;stroke-linecap:butt;stroke-linejoin:miter;stroke-opacity:1"
         d="m 490.90284,111.54375 c 0.56817,5.42489 -32.41946,6.24789 -31.14125,-0.0194 1.10551,-4.02509 1.76699,-5.75294 2.49206,-7.80976 2.61582,-3.40338 6.50571,2.74191 12.97507,4.41523 6.6811,1.15481 10.77113,-0.57889 12.97506,-4.41523 1.0622,2.88545 1.96355,5.49799 2.69906,7.82915 z"
         id="path12352-7-9-0"
         sodipodi:nodetypes="cccccc" />
      <path
         id="path16322-8-0-3-8-2-6"
         style="color:#000000;fill:#000000;fill-opacity:1;stroke-width:1;stroke-linecap:round;stroke-linejoin:round;-inkscape-stroke:none"
         d="m 473.44216,71.068158 c -2.90514,0.1229 -5.98523,0.24461 -8.58203,1.69727 -1.0715,0.56915 -1.64732,1.958197 -1.16406,3.050777 1.36878,6.641007 0.75909,13.521884 -0.61644,20.078288 -1.02255,5.045027 -2.71581,9.913547 -4.16102,14.843687 -0.13496,0.60543 -0.20515,0.66764 -0.19911,1.27332 0.11739,1.85113 1.99379,2.8388 3.54471,3.38782 4.1206,1.3459 8.51199,1.5447 12.81545,1.57421 4.47898,-0.067 9.03653,-0.33018 13.3293,-1.70617 1.47944,-0.53354 3.33183,-1.37527 3.54297,-3.13867 0.012,-1.23946 -0.6833,-2.35434 -0.97583,-3.53905 -1.82188,-5.61837 -3.37377,-11.317397 -4.26832,-17.175794 -0.58,-3.969367 -0.86479,-8.066644 -0.31258,-12.076504 0.1521,-1.518517 0.68304,-3.014127 0.65829,-4.575827 -0.34086,-1.592057 -2.11206,-2.173747 -3.4816,-2.602957 -3.28503,-0.90625 -6.73545,-1.12147 -10.12973,-1.0904 z m 0.95312,2.03906 c 3.03046,0.0388 6.15499,0.20931 9.07283,1.219737 0.44554,0.1754 0.90958,0.36716 1.27678,0.67284 -2.54637,0.84897 -5.24512,0.89144 -7.88429,0.99236 -3.42924,0.0247 -6.85662,-0.0203 -10.2115,-0.82965 -0.24569,-0.14073 -1.27931,-0.21058 -0.84366,-0.56896 1.19498,-0.8358 2.70465,-0.97637 4.05985,-1.207907 1.53041,-0.20195 2.99368,-0.26807 4.52999,-0.27842 z m -8.16796,4.029297 c 4.02179,0.92596 8.19174,0.95174 12.29738,0.81375 2.07851,-0.11603 4.17769,-0.26596 6.19285,-0.81961 -1.39652,7.223964 -0.2452,14.640891 1.40366,21.719308 0.15805,0.69434 0.33734,1.383457 0.51236,2.073647 -2.62564,-0.61659 -5.32883,0.0901 -7.90406,0.64099 -3.17109,0.76546 -6.27901,1.77716 -9.48266,2.40979 -1.6746,-1.03585 -3.40336,-2.56539 -5.51367,-2.28711 2.17916,-7.975724 3.54013,-16.386931 2.22265,-24.630845 0.0905,0.0267 0.18099,0.0534 0.27149,0.0801 z m 18.41796,25.558575 c 0.89734,0.0447 2.28191,0.0401 2.5254,1.12891 -0.50028,1.39295 -1.97731,2.10503 -3.23438,2.69726 -3.96593,1.61973 -8.72605,1.3033 -12.3457,-1.0371 4.35187,-0.90388 8.56678,-2.65218 13.05468,-2.78907 z m -20.16015,0.97071 c 1.75783,0.46484 3.14838,1.74419 4.67733,2.66916 2.45005,1.71763 5.28047,2.99283 8.30328,3.15166 3.56831,0.25832 7.3904,-0.55167 10.17289,-2.90043 0.53589,-0.83435 0.60654,0.0407 0.78182,0.60076 0.46543,1.61638 1.10452,3.20396 1.52366,4.81869 -0.73669,1.02766 -2.10355,1.31013 -3.24509,1.68774 -4.29435,1.09047 -8.70332,1.30098 -13.10169,1.25787 -3.56463,-0.10328 -7.20412,-0.31664 -10.64143,-1.44348 -0.81652,-0.34455 -1.87896,-0.65085 -2.22858,-1.54901 0.42544,-2.14381 1.2561,-4.19747 1.85056,-6.3024 0.26382,-0.72857 0.28427,-1.77002 1.21824,-1.95749 0.22204,-0.0727 0.46039,-0.0613 0.68901,-0.0331 z" />
      <path
         style="fill:#e8b741;fill-opacity:1;stroke:none;stroke-width:0.20877px;stroke-linecap:butt;stroke-linejoin:miter;stroke-opacity:1"
         d="m 475.67773,68.128301 c -0.0976,0 -0.53459,-0.0199 -0.57412,0 -0.0638,0.0322 -0.11001,0.0795 -0.17077,0.11232 -0.0419,0.0226 -0.0772,0.0314 -0.11823,0.0523 -0.0217,0.0111 -0.0613,-0.0117 -0.0827,0 -0.0287,0.0157 -0.0507,0.043 -0.0808,0.0558 -0.0208,0.009 -0.0528,-0.009 -0.0737,0 -0.0443,0.0184 -0.0956,0.0766 -0.13374,0.103 -0.0175,0.0121 -0.0624,-0.008 -0.0818,0 -0.0219,0.009 -0.0344,0.0339 -0.0555,0.0447 -0.12559,0.0643 -0.15568,0.13104 -0.26292,0.20922 -0.009,0.007 -0.0319,-0.006 -0.042,0 -0.0738,0.0453 -0.39641,0.40806 -0.42284,0.48366 -0.058,0.16561 -0.0526,0.60895 -0.0151,0.74837 0.0219,0.0816 -0.0109,0.18489 0,0.26815 0.0305,0.23656 0.0185,0.0979 0.0653,0.26506 0.0192,0.0713 0.002,0.15986 0.0192,0.2314 0.0167,0.0676 0.0434,0.13699 0.062,0.20382 0.008,0.029 -0.0117,0.0708 0,0.0984 0.15161,0.35576 0.40059,0.66917 0.64379,0.96622 0.10944,0.13367 0.21109,0.27227 0.32418,0.40313 0.0258,0.0299 0.0585,0.0858 0.0899,0.10851 0.0243,0.0175 0.0976,-0.007 0.12624,0 0.0186,0.005 0.035,0.016 0.0525,0.0236 0.0707,0.0307 0.32728,0.17329 0.39727,0.18273 0.0325,0.004 0.066,-0.005 0.0985,0 0.12868,0.0178 0.26377,0.10639 0.37899,0.15293 0.0539,0.0218 0.1012,0.0673 0.15367,0.0927 0.14722,0.0714 0.27523,0.15082 0.40644,0.24709 0.0689,0.0505 0.13414,0.0357 0.20042,0.0784 0.0997,0.0641 0.28781,0.20447 0.41364,0.2424 0.10655,0.0321 0.26714,0.0297 0.37495,0.0473 0.0951,0.0156 0.18758,0.0598 0.28245,0.0769 0.056,0.0101 0.11428,-0.007 0.17077,0 0.0272,0.003 0.0518,0.0187 0.0788,0.0236 0.0638,0.0115 0.0364,-0.009 0.0919,0 0.0507,0.008 0.10025,0.0224 0.15106,0.0296 0.12048,0.0169 0.25762,0 0.37934,0 0.23207,0 0.46415,0 0.69622,0 0.25836,0 0.51671,0 0.77507,0 0.09,0 0.20783,0.0207 0.29558,0 0.0693,-0.0164 0.13457,-0.0475 0.20361,-0.065 0.10238,-0.026 0.33092,0 0.43692,0 0.16571,0 0.3476,0.0196 0.51112,0 0.1188,-0.0143 0.23043,-0.0349 0.34813,-0.0532 0.0216,-0.003 0.0442,0.004 0.0657,0 0.0296,-0.006 0.0562,-0.0222 0.0854,-0.0296 0.084,-0.021 0.20472,-0.0233 0.289,-0.0532 0.32704,-0.11618 0.0104,-0.0186 0.22334,-0.10641 0.11956,-0.0493 0.25654,-0.0989 0.38379,-0.12876 0.0375,-0.009 0.0833,0.0106 0.12029,0 0.1985,-0.0572 0.38128,-0.13993 0.58354,-0.18793 0.0524,-0.0124 0.14146,0.024 0.18849,-0.007 0.0743,-0.0493 0.13897,-0.1225 0.20967,-0.17694 0.11499,-0.0885 0.23004,-0.17706 0.34827,-0.2612 0.002,-0.001 0.0346,0.001 0.0369,0 0.0189,-0.011 0.0328,-0.0295 0.0515,-0.0406 0.008,-0.005 0.0197,0.005 0.0276,0 0.0946,-0.0619 0.33216,-0.28121 0.40664,-0.38363 0.12343,-0.16961 0.26414,-0.40229 0.36339,-0.58191 0.0165,-0.0301 -0.006,-0.0204 0.0236,-0.0659 0.0672,-0.1037 0.12987,-0.19698 0.19678,-0.30542 0.0582,-0.0943 0.14663,-0.17938 0.19437,-0.28013 0.006,-0.0129 -0.008,-0.0385 0,-0.0503 0.0316,-0.0474 0.0771,-0.0892 0.0917,-0.14716 0.0286,-0.11487 0.006,-0.26339 0.006,-0.37842 0,-0.20385 -0.0124,-0.26931 -0.046,-0.48474 -0.009,-0.0577 0.01,-0.11771 0,-0.17561 -0.01,-0.0585 -0.0507,-0.10735 -0.0788,-0.15961 -0.18221,-0.33891 -0.48287,-0.56978 -0.79477,-0.78032 -0.0482,-0.0326 -0.0916,-0.0732 -0.14367,-0.1 -0.0425,-0.0218 -0.11635,-0.01 -0.16243,-0.0237 -0.16635,-0.0499 -0.41354,-0.26068 -0.5118,-0.40137 -0.0511,-0.0731 -0.0947,-0.166877 -0.11639,-0.254617 -0.0203,-0.0817 0,-0.1888 0,-0.27359 0,-0.20882 0,-0.41764 0,-0.62647 0,-0.072 0.0133,-0.15447 0,-0.22385 -0.0391,-0.2026 -0.14132,-0.40107 -0.24303,-0.57933 -0.0321,-0.0563 -0.0744,-0.10775 -0.0969,-0.16851 -0.0113,-0.0306 -0.0113,-0.0618 -0.0194,-0.093 -0.0646,-0.24775 -0.32727,-0.54173 -0.50863,-0.71638 -0.0523,-0.0504 -0.0709,-0.0463 -0.1257,-0.0735 -0.0881,-0.0438 -0.1805,-0.10592 -0.26186,-0.15961 -0.13971,-0.0922 -0.25319,-0.2197 -0.38297,-0.32352 -0.0284,-0.0228 -0.0686,-0.0298 -0.0953,-0.0468 -0.0335,-0.0213 -0.0644,-0.0518 -0.10292,-0.0663 -0.0465,-0.0175 -0.11278,-0.012 -0.16147,-0.0237 -0.0848,-0.0203 -0.16952,-0.0485 -0.25549,-0.0648 -0.0381,-0.007 -0.0799,0.004 -0.11852,0 -0.1527,-0.018 -0.29285,-0.0177 -0.44664,-0.0177 -0.14824,0 -0.29644,0 -0.44464,0 -0.0666,0 -0.16648,-0.0154 -0.23047,0 -0.11127,0.0268 -0.21249,0.0461 -0.3267,0.0704 -0.0583,0.0124 -0.11223,0.0421 -0.17078,0.0532 -0.0688,0.013 -0.15328,-0.0201 -0.22019,0 -0.0518,0.0155 -0.10075,0.0394 -0.15109,0.0591 -0.0171,0.008 -0.0334,0.0174 -0.0514,0.0231 -0.0602,0.0192 -0.13878,-0.0146 -0.20025,0 -0.10048,0.0238 -0.19852,0.0737 -0.29986,0.0997 -0.0372,0.01 -0.1482,-0.0243 -0.17937,0 -0.0941,0.0734 -0.20957,0.20482 -0.30775,0.27092 -0.006,0.004 -0.0135,0 -0.0198,0 -0.004,0 -0.008,-0.002 -0.0107,0 -0.0308,0.0198 -0.0465,0.0598 -0.0847,0.0704 -0.0302,0.0181 -0.0324,-0.005 -0.0799,0.0268 -0.0486,0.0322 -0.0849,0.0756 -0.13602,0.10503 -0.0167,0.01 -0.0794,0.0176 -0.10167,0.0284 -0.12361,0.0604 -0.25528,0.21208 -0.37324,0.2651 -0.13277,0.0597 -0.26416,0.12342 -0.36585,0.23646 -0.08,0.0889 -0.13353,0.19808 -0.20344,0.29535 -0.0299,0.0415 -0.064,0.0734 -0.0918,0.11807 -0.0489,0.0783 -0.0702,0.17864 -0.1152,0.25896 -0.0428,0.0766 -0.10227,0.13958 -0.14322,0.21667 -0.0878,0.16519 -0.14305,0.34988 -0.22534,0.51655 -0.0256,0.052 -0.0318,0.0512 -0.0493,0.11664 -0.009,0.0351 0,0.0846 0,0.1205 0,0.18145 0.0155,0.36541 -0.10475,0.51922 -0.10448,-0.0117 -0.22687,0.0304 -0.33069,0.006 -0.0226,-0.005 -0.0457,-0.0189 -0.0697,-0.0219 -0.0454,-0.005 -0.22708,0.0117 -0.24436,0.0711 -0.006,0.0202 -0.003,0.0419 -0.005,0.0628 z"
         id="path20761-7-4-8" />
      <g
         id="g38-4-7-7"
         transform="matrix(0.01317234,0,0,0.01317234,473.01347,62.501264)"
         style="fill:#404040;fill-opacity:1">
        <g
           id="g6-1-7-9"
           style="fill:#404040;fill-opacity:1">
          <path
             d="M 857.5,409 C 876.2,221.1 699.3,95.4 517.3,114.9 362.5,131.5 246.9,239.5 224,385.3 161.6,368.1 85.3,393.6 47.6,446.4 -15.8,535 6.8,653.3 72.7,734.2 c 1.7,2.7 3.7,5.3 6.3,7.8 2.2,2.6 4.6,4.7 7,6.4 182.2,170 473.4,163.4 696.4,88.2 C 882.2,803 980.7,745.3 989,629.8 996.8,520.8 959.2,437.1 857.5,409 Z m 35.3,267.1 C 854.3,751.5 713.8,776 639,791.1 470.9,825 264.8,809.7 136.3,684.8 106.7,651 92.7,608 90,563.7 85.9,494.8 178.8,417.5 231.8,485 c 22.1,28.1 70.7,4.4 69.1,-28.6 -5.7,-118.9 57.2,-216.5 172.9,-251 147.5,-43.9 343,43 298.2,224.4 -4.7,19.2 6,46.8 28.3,49.8 46.4,6.2 100.9,21.6 108.3,77.6 5.2,39.2 2.2,83.5 -15.8,118.9 z"
             id="path4-8-5-0"
             style="fill:#404040;fill-opacity:1" />
        </g>
        <g
           id="g8-5-4-3"
           style="fill:#404040;fill-opacity:1" />
        <g
           id="g10-9-8-3"
           style="fill:#404040;fill-opacity:1" />
        <g
           id="g12-7-1-3"
           style="fill:#404040;fill-opacity:1" />
        <g
           id="g14-5-2-7"
           style="fill:#404040;fill-opacity:1" />
        <g
           id="g16-3-8-3"
           style="fill:#404040;fill-opacity:1" />
        <g
           id="g18-8-9-2"
           style="fill:#404040;fill-opacity:1" />
        <g
           id="g20-8-3-6"
           style="fill:#404040;fill-opacity:1" />
        <g
           id="g22-3-6-5"
           style="fill:#404040;fill-opacity:1" />
        <g
           id="g24-1-8-2"
           style="fill:#404040;fill-opacity:1" />
        <g
           id="g26-8-0-6"
           style="fill:#404040;fill-opacity:1" />
        <g
           id="g28-9-2-5"
           style="fill:#404040;fill-opacity:1" />
        <g
           id="g30-6-1-8"
           style="fill:#404040;fill-opacity:1" />
        <g
           id="g32-4-0-7"
           style="fill:#404040;fill-opacity:1" />
        <g
           id="g34-3-5-9"
           style="fill:#404040;fill-opacity:1" />
        <g
           id="g36-3-1-6"
           style="fill:#404040;fill-opacity:1" />
      </g>
      <path
         style="fill:#da8783;fill-opacity:1;stroke:none;stroke-width:0.20877px;stroke-linecap:butt;stroke-linejoin:miter;stroke-opacity:1"
         d="m 469.8569,64.424141 c -0.0976,0 -0.5346,-0.0199 -0.57413,0 -0.0638,0.0322 -0.11001,0.0795 -0.17076,0.11232 -0.0419,0.0226 -0.0772,0.0314 -0.11824,0.0523 -0.0217,0.0111 -0.0613,-0.0117 -0.0827,0 -0.0287,0.0157 -0.0507,0.043 -0.0808,0.0558 -0.0208,0.009 -0.0528,-0.009 -0.0737,0 -0.0444,0.0184 -0.0956,0.0766 -0.13374,0.10299 -0.0175,0.0121 -0.0624,-0.008 -0.0818,0 -0.0219,0.009 -0.0344,0.0339 -0.0555,0.0447 -0.12559,0.0643 -0.15568,0.13105 -0.26292,0.20923 -0.009,0.007 -0.032,-0.006 -0.042,0 -0.0738,0.0453 -0.3964,0.40806 -0.42284,0.48366 -0.058,0.1656 -0.0526,0.60894 -0.0151,0.74837 0.0219,0.0816 -0.0109,0.18488 0,0.26814 0.0305,0.23657 0.0185,0.0979 0.0653,0.26507 0.0192,0.0713 0.002,0.15986 0.0192,0.23139 0.0167,0.0676 0.0434,0.13699 0.062,0.20382 0.008,0.029 -0.0117,0.0708 0,0.0984 0.15161,0.35576 0.40059,0.66918 0.64379,0.966227 0.10943,0.13366 0.21109,0.27227 0.32417,0.40312 0.0258,0.0299 0.0585,0.0858 0.0899,0.10851 0.0243,0.0175 0.0976,-0.007 0.12624,0 0.0186,0.005 0.035,0.016 0.0525,0.0237 0.0707,0.0306 0.32729,0.17329 0.39728,0.18274 0.0325,0.004 0.066,-0.004 0.0985,0 0.12867,0.0178 0.26377,0.10639 0.37898,0.15293 0.0539,0.0218 0.10121,0.0673 0.15368,0.0927 0.14722,0.0714 0.27522,0.15081 0.40643,0.24709 0.0689,0.0505 0.13414,0.0357 0.20042,0.0784 0.0997,0.0641 0.28782,0.20446 0.41364,0.24239 0.10656,0.0321 0.26714,0.0296 0.37495,0.0473 0.0951,0.0156 0.18758,0.0598 0.28245,0.0769 0.056,0.0101 0.11428,-0.007 0.17078,0 0.0272,0.003 0.0518,0.0188 0.0788,0.0237 0.0638,0.0115 0.0364,-0.009 0.0919,0 0.0507,0.008 0.10025,0.0224 0.15107,0.0296 0.12048,0.0169 0.25762,0 0.37934,0 0.23206,0 0.46415,0 0.69622,0 0.25836,0 0.51671,0 0.77506,0 0.09,0 0.20783,0.0207 0.29558,0 0.0694,-0.0163 0.13458,-0.0475 0.20362,-0.065 0.10238,-0.026 0.33092,0 0.43691,0 0.16572,0 0.34761,0.0196 0.51113,0 0.11879,-0.0143 0.23043,-0.0349 0.34813,-0.0532 0.0216,-0.003 0.0442,0.004 0.0657,0 0.0296,-0.006 0.0562,-0.0222 0.0854,-0.0296 0.084,-0.021 0.20472,-0.0233 0.289,-0.0532 0.32704,-0.11617 0.0104,-0.0186 0.22334,-0.10641 0.11957,-0.0493 0.25654,-0.0989 0.38379,-0.12876 0.0375,-0.009 0.0833,0.0106 0.12029,0 0.19851,-0.0572 0.38128,-0.13992 0.58354,-0.18793 0.0524,-0.0124 0.14147,0.024 0.1885,-0.007 0.0743,-0.0493 0.13897,-0.1225 0.20967,-0.17693 0.11498,-0.0885 0.23004,-0.17706 0.34827,-0.2612 0.002,-0.001 0.0346,0.001 0.0369,0 0.0189,-0.011 0.0327,-0.0295 0.0515,-0.0406 0.008,-0.005 0.0197,0.005 0.0276,0 0.0946,-0.0619 0.33215,-0.28122 0.40664,-0.38363 0.12342,-0.16961 0.26413,-0.402287 0.36339,-0.581917 0.0165,-0.0301 -0.006,-0.0205 0.0236,-0.0659 0.0672,-0.1037 0.12987,-0.19697 0.19678,-0.30542 0.0582,-0.0943 0.14663,-0.17938 0.19437,-0.28013 0.006,-0.0129 -0.008,-0.0386 0,-0.0503 0.0316,-0.0474 0.0771,-0.0892 0.0917,-0.14715 0.0286,-0.11488 0.006,-0.26339 0.006,-0.37842 0,-0.20385 -0.0124,-0.26932 -0.046,-0.48474 -0.009,-0.0577 0.01,-0.11772 0,-0.17562 -0.01,-0.0585 -0.0507,-0.10735 -0.0788,-0.15961 -0.18222,-0.3389 -0.48287,-0.56977 -0.79478,-0.78031 -0.0482,-0.0326 -0.0916,-0.0732 -0.14367,-0.1 -0.0425,-0.0218 -0.11634,-0.01 -0.16242,-0.0237 -0.16635,-0.0499 -0.41354,-0.26068 -0.51181,-0.40137 -0.051,-0.0731 -0.0947,-0.16688 -0.11638,-0.25463 -0.0203,-0.0817 0,-0.18879 0,-0.27358 0,-0.20882 0,-0.41765 0,-0.62647 0,-0.072 0.0133,-0.15447 0,-0.22385 -0.0391,-0.2026 -0.14132,-0.401067 -0.24303,-0.579327 -0.0321,-0.0563 -0.0744,-0.10775 -0.0969,-0.16852 -0.0113,-0.0306 -0.0113,-0.0618 -0.0194,-0.093 -0.0646,-0.24774 -0.32727,-0.54172 -0.50863,-0.71638 -0.0523,-0.0504 -0.0709,-0.0463 -0.1257,-0.0735 -0.0881,-0.0438 -0.1805,-0.10591 -0.26186,-0.15961 -0.13971,-0.0922 -0.2532,-0.21969 -0.38297,-0.32351 -0.0284,-0.0228 -0.0686,-0.0298 -0.0953,-0.0468 -0.0335,-0.0212 -0.0644,-0.0518 -0.10293,-0.0663 -0.0465,-0.0175 -0.11278,-0.012 -0.16146,-0.0237 -0.0848,-0.0204 -0.16952,-0.0485 -0.2555,-0.0648 -0.0381,-0.007 -0.0799,0.005 -0.11851,0 -0.1527,-0.018 -0.29285,-0.0177 -0.44665,-0.0177 -0.14823,0 -0.29644,0 -0.44464,0 -0.0666,0 -0.16647,-0.0154 -0.23047,0 -0.11127,0.0268 -0.21248,0.0461 -0.3267,0.0704 -0.0583,0.0124 -0.11222,0.0421 -0.17077,0.0532 -0.0688,0.013 -0.15328,-0.0201 -0.22019,0 -0.0518,0.0155 -0.10075,0.0394 -0.15109,0.0591 -0.0171,0.008 -0.0334,0.0174 -0.0514,0.0231 -0.0602,0.0192 -0.13879,-0.0146 -0.20025,0 -0.10048,0.0238 -0.19852,0.0737 -0.29986,0.0997 -0.0372,0.01 -0.14821,-0.0243 -0.17938,0 -0.0941,0.0734 -0.20956,0.20481 -0.30774,0.27092 -0.006,0.004 -0.0135,0 -0.0198,0 -0.004,0 -0.008,-0.002 -0.0106,0 -0.0308,0.0198 -0.0465,0.0598 -0.0847,0.0704 -0.0302,0.0181 -0.0324,-0.005 -0.0799,0.0268 -0.0486,0.0322 -0.0849,0.0756 -0.13601,0.10502 -0.0167,0.01 -0.0794,0.0176 -0.10167,0.0284 -0.12362,0.0604 -0.25529,0.21208 -0.37324,0.26511 -0.13278,0.0597 -0.26416,0.12342 -0.36586,0.23646 -0.08,0.0889 -0.13353,0.19808 -0.20344,0.29535 -0.0299,0.0415 -0.064,0.0734 -0.0918,0.11807 -0.0489,0.0783 -0.0702,0.17864 -0.1152,0.25895 -0.0428,0.0766 -0.10226,0.13959 -0.14321,0.216677 -0.0878,0.16518 -0.14306,0.34988 -0.22535,0.51655 -0.0256,0.052 -0.0318,0.0511 -0.0493,0.11663 -0.009,0.0351 0,0.0846 0,0.12051 0,0.18145 0.0155,0.36541 -0.10476,0.51921 -0.10447,-0.0117 -0.22687,0.0304 -0.33068,0.006 -0.0226,-0.005 -0.0457,-0.0189 -0.0698,-0.0219 -0.0455,-0.005 -0.22707,0.0117 -0.24435,0.0711 -0.006,0.0201 -0.003,0.0419 -0.005,0.0628 z"
         id="path20761-8-0-0" />
      <g
         id="g38-6-8-4"
         transform="matrix(0.01317234,0,0,0.01317234,467.19264,58.797094)"
         style="fill:#404040;fill-opacity:1">
        <g
           id="g6-0-5-1"
           style="fill:#404040;fill-opacity:1">
          <path
             d="M 857.5,409 C 876.2,221.1 699.3,95.4 517.3,114.9 362.5,131.5 246.9,239.5 224,385.3 161.6,368.1 85.3,393.6 47.6,446.4 -15.8,535 6.8,653.3 72.7,734.2 c 1.7,2.7 3.7,5.3 6.3,7.8 2.2,2.6 4.6,4.7 7,6.4 182.2,170 473.4,163.4 696.4,88.2 C 882.2,803 980.7,745.3 989,629.8 996.8,520.8 959.2,437.1 857.5,409 Z m 35.3,267.1 C 854.3,751.5 713.8,776 639,791.1 470.9,825 264.8,809.7 136.3,684.8 106.7,651 92.7,608 90,563.7 85.9,494.8 178.8,417.5 231.8,485 c 22.1,28.1 70.7,4.4 69.1,-28.6 -5.7,-118.9 57.2,-216.5 172.9,-251 147.5,-43.9 343,43 298.2,224.4 -4.7,19.2 6,46.8 28.3,49.8 46.4,6.2 100.9,21.6 108.3,77.6 5.2,39.2 2.2,83.5 -15.8,118.9 z"
             id="path4-4-0-0"
             style="fill:#404040;fill-opacity:1" />
        </g>
        <g
           id="g8-8-6-4"
           style="fill:#404040;fill-opacity:1" />
        <g
           id="g10-8-4-8"
           style="fill:#404040;fill-opacity:1" />
        <g
           id="g12-8-6-7"
           style="fill:#404040;fill-opacity:1" />
        <g
           id="g14-9-2-0"
           style="fill:#404040;fill-opacity:1" />
        <g
           id="g16-7-5-8"
           style="fill:#404040;fill-opacity:1" />
        <g
           id="g18-7-8-6"
           style="fill:#404040;fill-opacity:1" />
        <g
           id="g20-6-6-2"
           style="fill:#404040;fill-opacity:1" />
        <g
           id="g22-4-2-4"
           style="fill:#404040;fill-opacity:1" />
        <g
           id="g24-3-8-7"
           style="fill:#404040;fill-opacity:1" />
        <g
           id="g26-0-4-9"
           style="fill:#404040;fill-opacity:1" />
        <g
           id="g28-3-7-3"
           style="fill:#404040;fill-opacity:1" />
        <g
           id="g30-0-2-9"
           style="fill:#404040;fill-opacity:1" />
        <g
           id="g32-9-4-2"
           style="fill:#404040;fill-opacity:1" />
        <g
           id="g34-2-0-8"
           style="fill:#404040;fill-opacity:1" />
        <g
           id="g36-5-6-3"
           style="fill:#404040;fill-opacity:1" />
      </g>
      <path
         style="fill:#d063b6;fill-opacity:1;stroke:none;stroke-width:0.20877px;stroke-linecap:butt;stroke-linejoin:miter;stroke-opacity:1"
         d="m 467.8264,69.755868 c -0.0976,0 -0.53459,-0.0199 -0.57412,0 -0.0638,0.0322 -0.11001,0.0795 -0.17077,0.11232 -0.0419,0.0226 -0.0772,0.0314 -0.11823,0.0523 -0.0217,0.0111 -0.0613,-0.0117 -0.0827,0 -0.0287,0.0157 -0.0507,0.043 -0.0808,0.0558 -0.0207,0.009 -0.0528,-0.009 -0.0737,0 -0.0443,0.0184 -0.0955,0.0765 -0.13373,0.10299 -0.0175,0.0121 -0.0624,-0.008 -0.0818,0 -0.0219,0.009 -0.0344,0.0339 -0.0555,0.0447 -0.1256,0.0643 -0.15568,0.13105 -0.26292,0.20923 -0.009,0.007 -0.032,-0.006 -0.042,0 -0.0738,0.0453 -0.39641,0.40806 -0.42284,0.48366 -0.058,0.1656 -0.0526,0.60894 -0.0151,0.74837 0.0219,0.0816 -0.0109,0.18488 0,0.26814 0.0305,0.23657 0.0185,0.0979 0.0653,0.26507 0.0192,0.0713 0.002,0.15986 0.0192,0.23139 0.0167,0.0676 0.0434,0.13699 0.062,0.20382 0.008,0.029 -0.0117,0.0708 0,0.0984 0.15161,0.35576 0.40058,0.66918 0.64379,0.966227 0.10943,0.13366 0.21108,0.27227 0.32417,0.40312 0.0258,0.0299 0.0585,0.0858 0.0899,0.10851 0.0243,0.0175 0.0976,-0.007 0.12624,0 0.0186,0.005 0.035,0.016 0.0526,0.0237 0.0707,0.0307 0.32728,0.17329 0.39727,0.18274 0.0325,0.004 0.066,-0.005 0.0985,0 0.12867,0.0178 0.26376,0.10639 0.37898,0.15293 0.0539,0.0218 0.1012,0.0673 0.15368,0.0927 0.14722,0.0714 0.27522,0.15081 0.40643,0.24709 0.0689,0.0505 0.13414,0.0357 0.20042,0.0784 0.0997,0.0641 0.28782,0.20446 0.41364,0.24239 0.10655,0.0321 0.26714,0.0296 0.37495,0.0473 0.0951,0.0156 0.18758,0.0598 0.28245,0.0769 0.056,0.0101 0.11428,-0.007 0.17077,0 0.0272,0.003 0.0519,0.0188 0.0788,0.0237 0.0638,0.0115 0.0364,-0.009 0.0919,0 0.0507,0.008 0.10025,0.0224 0.15106,0.0296 0.12048,0.0169 0.25762,0 0.37934,0 0.23207,0 0.46416,0 0.69622,0 0.25836,0 0.51672,0 0.77507,0 0.09,0 0.20783,0.0207 0.29558,0 0.0694,-0.0163 0.13457,-0.0475 0.20361,-0.065 0.10238,-0.026 0.33093,0 0.43692,0 0.16572,0 0.3476,0.0196 0.51113,0 0.11879,-0.0143 0.23042,-0.0349 0.34813,-0.0532 0.0216,-0.003 0.0442,0.004 0.0657,0 0.0296,-0.006 0.0562,-0.0222 0.0854,-0.0296 0.084,-0.021 0.20472,-0.0233 0.289,-0.0532 0.32704,-0.11618 0.0104,-0.0186 0.22334,-0.10641 0.11957,-0.0493 0.25654,-0.0989 0.38379,-0.12876 0.0375,-0.009 0.0833,0.0106 0.12029,0 0.1985,-0.0572 0.38128,-0.13992 0.58354,-0.18793 0.0524,-0.0124 0.14147,0.024 0.1885,-0.007 0.0743,-0.0493 0.13896,-0.1225 0.20966,-0.17693 0.11499,-0.0885 0.23004,-0.17706 0.34828,-0.26121 0.002,-10e-4 0.0346,0.001 0.0369,0 0.0189,-0.011 0.0327,-0.0295 0.0515,-0.0406 0.008,-0.005 0.0197,0.005 0.0276,0 0.0946,-0.0619 0.33215,-0.28121 0.40664,-0.38362 0.12342,-0.16961 0.26413,-0.402287 0.36339,-0.581917 0.0165,-0.0301 -0.006,-0.0204 0.0236,-0.0659 0.0672,-0.1037 0.12987,-0.19698 0.19678,-0.30542 0.0582,-0.0943 0.14663,-0.17938 0.19437,-0.28013 0.006,-0.0129 -0.008,-0.0385 0,-0.0503 0.0316,-0.0474 0.0771,-0.0892 0.0917,-0.14716 0.0286,-0.11487 0.006,-0.26339 0.006,-0.37841 0,-0.20386 -0.0124,-0.26932 -0.046,-0.48475 -0.009,-0.0577 0.01,-0.11771 0,-0.17561 -0.01,-0.0585 -0.0507,-0.10735 -0.0788,-0.15961 -0.18222,-0.3389 -0.48287,-0.56977 -0.79478,-0.78032 -0.0482,-0.0326 -0.0916,-0.0732 -0.14367,-0.1 -0.0425,-0.0218 -0.11635,-0.01 -0.16243,-0.0237 -0.16635,-0.0499 -0.41353,-0.26067 -0.5118,-0.40137 -0.0511,-0.0731 -0.0947,-0.16687 -0.11639,-0.25462 -0.0203,-0.0817 0,-0.1888 0,-0.27358 0,-0.20883 0,-0.41765 0,-0.62647 0,-0.072 0.0133,-0.15448 0,-0.22386 -0.0391,-0.20259 -0.14132,-0.401057 -0.24303,-0.579317 -0.0321,-0.0563 -0.0744,-0.10776 -0.0969,-0.16852 -0.0113,-0.0306 -0.0113,-0.0618 -0.0194,-0.093 -0.0646,-0.24774 -0.32727,-0.54172 -0.50864,-0.71638 -0.0523,-0.0504 -0.0709,-0.0463 -0.12569,-0.0735 -0.0881,-0.0438 -0.18051,-0.10592 -0.26187,-0.15961 -0.13971,-0.0922 -0.25319,-0.21969 -0.38296,-0.32352 -0.0284,-0.0228 -0.0686,-0.0298 -0.0953,-0.0468 -0.0335,-0.0213 -0.0644,-0.0518 -0.10292,-0.0663 -0.0465,-0.0175 -0.11278,-0.012 -0.16146,-0.0237 -0.0848,-0.0203 -0.16953,-0.0485 -0.2555,-0.0648 -0.0381,-0.007 -0.0799,0.004 -0.11852,0 -0.15269,-0.018 -0.29285,-0.0177 -0.44664,-0.0177 -0.14823,0 -0.29644,0 -0.44464,0 -0.0666,0 -0.16648,-0.0154 -0.23047,0 -0.11127,0.0268 -0.21248,0.0461 -0.3267,0.0704 -0.0583,0.0124 -0.11223,0.0421 -0.17077,0.0532 -0.0688,0.013 -0.15329,-0.0201 -0.2202,0 -0.0518,0.0155 -0.10074,0.0394 -0.15109,0.0591 -0.0171,0.008 -0.0334,0.0174 -0.0514,0.0231 -0.0602,0.0192 -0.13879,-0.0146 -0.20026,0 -0.10048,0.0238 -0.19852,0.0737 -0.29985,0.0997 -0.0373,0.01 -0.14821,-0.0243 -0.17938,0 -0.0941,0.0734 -0.20956,0.20482 -0.30775,0.27092 -0.006,0.004 -0.0135,0 -0.0198,0 -0.004,0 -0.008,-0.002 -0.0106,0 -0.0309,0.0198 -0.0465,0.0598 -0.0847,0.0704 -0.0302,0.0181 -0.0324,-0.005 -0.0799,0.0268 -0.0486,0.0322 -0.0849,0.0756 -0.13602,0.10503 -0.0167,0.01 -0.0794,0.0176 -0.10167,0.0284 -0.12361,0.0604 -0.25528,0.21208 -0.37324,0.26511 -0.13277,0.0597 -0.26416,0.12341 -0.36585,0.23646 -0.08,0.0889 -0.13353,0.19807 -0.20344,0.29534 -0.0299,0.0415 -0.064,0.0734 -0.0918,0.11807 -0.0489,0.0783 -0.0702,0.17865 -0.1152,0.25896 -0.0429,0.0766 -0.10226,0.139577 -0.14321,0.216667 -0.0878,0.16519 -0.14306,0.34988 -0.22535,0.51655 -0.0256,0.052 -0.0318,0.0511 -0.0493,0.11664 -0.009,0.0351 0,0.0846 0,0.1205 0,0.18145 0.0155,0.36541 -0.10475,0.51922 -0.10447,-0.0117 -0.22687,0.0304 -0.33069,0.006 -0.0226,-0.005 -0.0457,-0.0189 -0.0697,-0.0219 -0.0455,-0.006 -0.22707,0.0117 -0.24435,0.0711 -0.006,0.0201 -0.003,0.0418 -0.005,0.0628 z"
         id="path20761-9-0" />
      <g
         id="g38-9-1"
         transform="matrix(0.01317234,0,0,0.01317234,465.16214,64.128821)"
         style="fill:#404040;fill-opacity:1">
        <g
           id="g6-08-7"
           style="fill:#404040;fill-opacity:1">
          <path
             d="M 857.5,409 C 876.2,221.1 699.3,95.4 517.3,114.9 362.5,131.5 246.9,239.5 224,385.3 161.6,368.1 85.3,393.6 47.6,446.4 -15.8,535 6.8,653.3 72.7,734.2 c 1.7,2.7 3.7,5.3 6.3,7.8 2.2,2.6 4.6,4.7 7,6.4 182.2,170 473.4,163.4 696.4,88.2 C 882.2,803 980.7,745.3 989,629.8 996.8,520.8 959.2,437.1 857.5,409 Z m 35.3,267.1 C 854.3,751.5 713.8,776 639,791.1 470.9,825 264.8,809.7 136.3,684.8 106.7,651 92.7,608 90,563.7 85.9,494.8 178.8,417.5 231.8,485 c 22.1,28.1 70.7,4.4 69.1,-28.6 -5.7,-118.9 57.2,-216.5 172.9,-251 147.5,-43.9 343,43 298.2,224.4 -4.7,19.2 6,46.8 28.3,49.8 46.4,6.2 100.9,21.6 108.3,77.6 5.2,39.2 2.2,83.5 -15.8,118.9 z"
             id="path4-1-8"
             style="fill:#404040;fill-opacity:1" />
        </g>
        <g
           id="g8-3-9"
           style="fill:#404040;fill-opacity:1" />
        <g
           id="g10-1-1"
           style="fill:#404040;fill-opacity:1" />
        <g
           id="g12-1-5"
           style="fill:#404040;fill-opacity:1" />
        <g
           id="g14-0-4"
           style="fill:#404040;fill-opacity:1" />
        <g
           id="g16-34-9"
           style="fill:#404040;fill-opacity:1" />
        <g
           id="g18-0-2"
           style="fill:#404040;fill-opacity:1" />
        <g
           id="g20-3-5"
           style="fill:#404040;fill-opacity:1" />
        <g
           id="g22-9-7"
           style="fill:#404040;fill-opacity:1" />
        <g
           id="g24-19-4"
           style="fill:#404040;fill-opacity:1" />
        <g
           id="g26-6-9"
           style="fill:#404040;fill-opacity:1" />
        <g
           id="g28-93-9"
           style="fill:#404040;fill-opacity:1" />
        <g
           id="g30-3-4"
           style="fill:#404040;fill-opacity:1" />
        <g
           id="g32-8-5"
           style="fill:#404040;fill-opacity:1" />
        <g
           id="g34-0-9"
           style="fill:#404040;fill-opacity:1" />
        <g
           id="g36-56-3"
           style="fill:#404040;fill-opacity:1" />
      </g>
    </g>
  </g>
</svg>
