<svg width="304" height="422" viewBox="0 0 304 422" fill="none" xmlns="http://www.w3.org/2000/svg">
<path d="M184.37 46.5031L126.914 255.326C124.269 264.938 109.723 263.076 109.723 253.125V36.9475C109.723 16.542 126.722 0 147.692 0C172.655 0 190.826 23.0386 184.37 46.5031Z" fill="#0066FF"/>
<path d="M288.209 153.127L153.508 278.759C146.473 285.32 135.659 276.913 140.439 268.597L231.952 109.389C242.891 90.3566 268.332 85.3452 285.732 98.7953C303.197 112.295 304.371 138.053 288.209 153.127Z" fill="#0066FF"/>
<path d="M271.15 312.28L168.93 312.28C159.9 312.28 157.026 299.715 165.103 295.547L256.531 248.366C278.266 237.149 303.839 253.461 303.839 278.542C303.839 297.175 289.204 312.28 271.15 312.28Z" fill="#0066FF"/>
<path fill-rule="evenodd" clip-rule="evenodd" d="M29.5381 1.29123e-06C45.8526 5.78105e-07 59.0781 13.2255 59.0781 29.54L59.0781 392.46C59.0781 408.774 45.8526 422 29.5381 422C13.2237 422 -0.00184752 408.774 -0.00184823 392.46L-0.0018641 29.54C-0.00186481 13.2255 13.2236 2.00436e-06 29.5381 1.29123e-06Z" fill="#0066FF"/>
<path fill-rule="evenodd" clip-rule="evenodd" d="M303.84 392.46C303.84 408.774 290.614 422 274.3 422L29.54 422C13.2255 422 -3.8147e-05 408.774 -3.8147e-05 392.46C-3.8147e-05 376.146 13.2255 362.92 29.54 362.92L274.3 362.92C290.614 362.92 303.84 376.146 303.84 392.46Z" fill="#0066FF"/>
</svg>