<?xml version="1.0" encoding="UTF-8" standalone="no"?>
<svg
   fill="none"
   height="32.7234"
   viewBox="0 0 28.3419 32.7234"
   width="28.3419"
   version="1.1"
   id="svg23"
   sodipodi:docname="raydium.svg"
   inkscape:version="1.1.2 (0a00cf5339, 2022-02-04)"
   xmlns:inkscape="http://www.inkscape.org/namespaces/inkscape"
   xmlns:sodipodi="http://sodipodi.sourceforge.net/DTD/sodipodi-0.dtd"
   xmlns="http://www.w3.org/2000/svg"
   xmlns:svg="http://www.w3.org/2000/svg">
  <defs
     id="defs27" />
  <sodipodi:namedview
     id="namedview25"
     pagecolor="#ffffff"
     bordercolor="#666666"
     borderopacity="1.0"
     inkscape:pageshadow="2"
     inkscape:pageopacity="0.0"
     inkscape:pagecheckerboard="0"
     showgrid="false"
     fit-margin-top="0"
     fit-margin-left="0"
     fit-margin-right="0"
     fit-margin-bottom="0"
     inkscape:zoom="4.6263396"
     inkscape:cx="55.659555"
     inkscape:cy="12.644986"
     inkscape:window-width="1920"
     inkscape:window-height="1016"
     inkscape:window-x="0"
     inkscape:window-y="27"
     inkscape:window-maximized="1"
     inkscape:current-layer="svg23" />
  <linearGradient
     id="a"
     gradientUnits="userSpaceOnUse"
     x1="28.316799"
     x2="-1.7333601"
     y1="8.1916199"
     y2="20.208599">
    <stop
       offset="0"
       stop-color="#c200fb"
       id="stop2" />
    <stop
       offset=".489658"
       stop-color="#3772ff"
       id="stop4" />
    <stop
       offset=".489758"
       stop-color="#3773fe"
       id="stop6" />
    <stop
       offset="1"
       stop-color="#5ac4be"
       id="stop8" />
  </linearGradient>
  <g
     fill="url(#a)"
     id="g21"
     style="fill:#ffffff;fill-opacity:1">
    <path
       d="M 26.8625,12.281 V 23.6914 L 14.1709,31.0175 1.47231,23.6914 V 9.03203 L 14.1709,1.69881 23.925,7.33322 25.3973,6.48381 14.1709,0 0,8.18262 V 24.5408 l 14.1709,8.1826 14.171,-8.1826 V 11.4316 Z"
       id="path13"
       style="fill:#ffffff;fill-opacity:1" />
    <path
       d="M 10.6176,23.6985 H 8.49407 v -7.1209 h 7.07843 c 0.6697,-0.0074 1.3095,-0.2782 1.7811,-0.7538 0.4716,-0.4755 0.737,-1.1176 0.7388,-1.7874 0.0038,-0.3311 -0.0601,-0.6596 -0.1879,-0.9651 -0.1279,-0.3056 -0.3168,-0.5817 -0.5554,-0.8115 -0.2308,-0.2372 -0.5071,-0.4253 -0.8124,-0.553 -0.3053,-0.1278 -0.6333,-0.1925 -0.9642,-0.1903 H 8.49407 V 9.35055 h 7.08543 c 1.2405,0.00743 2.4281,0.50351 3.3053,1.38065 0.8771,0.8772 1.3732,2.0648 1.3806,3.3052 0.0076,0.9496 -0.2819,1.8777 -0.8281,2.6544 -0.5027,0.7432 -1.2111,1.3237 -2.0386,1.6705 -0.8194,0.2599 -1.6745,0.3889 -2.5341,0.3823 h -4.247 z"
       id="path15"
       style="fill:#ffffff;fill-opacity:1" />
    <path
       d="m 20.2159,23.5215 h -2.4775 l -1.9111,-3.3339 c 0.7561,-0.0463 1.5019,-0.1988 2.2155,-0.453 z"
       id="path17"
       style="fill:#ffffff;fill-opacity:1" />
    <path
       d="m 25.3831,9.90975 1.4652,0.81405 1.4653,-0.81405 V 8.1897 L 26.8483,7.34029 25.3831,8.1897 Z"
       id="path19"
       style="fill:#ffffff;fill-opacity:1" />
  </g>
</svg>
